<svg xmlns="http://www.w3.org/2000/svg" width="900" height="450" viewBox="0 0 900 450" role="img" aria-labelledby="title desc">
<title id="title">Bayram Tosun — software, learning, curiosity</title><desc id="desc">An ASCII portrait made from my GitHub photograph. Computer Science BSc and MSc graduate in London, interested in backend development and machine learning.</desc>
<rect width="900" height="450" rx="10" fill="#f6f5f1"/>
<g font-family="'SFMono-Regular',Consolas,'Liberation Mono',monospace"><g transform="translate(30 41) scale(1)" aria-hidden="true"><clipPath id="r2"><rect x="-1" y="7.08" width="310" height="7.6"><animate attributeName="width" values="0;0;310" keyTimes="0;0.0984;1" begin="0s" dur="0.61s" fill="freeze"/></rect></clipPath><text x="0.00 4.05 8.10 12.15 16.20 20.25 24.30 28.35 32.40 36.45 40.50 44.55 48.60 52.65 56.70 60.75 64.80 68.85 72.90 76.95 81.00 85.05 89.10 93.15 97.20 101.25 105.30 109.35 113.40 117.45 121.50 125.55 129.60 133.65 137.70 141.75 145.80 149.85 153.90" y="13.88" font-size="6.7" font-weight="500" fill="#45515d" xml:space="preserve" clip-path="url(#r2)">                                ;irrii;</text><clipPath id="r3"><rect x="-1" y="14.02" width="310" height="7.6"><animate attributeName="width" values="0;0;310" keyTimes="0;0.1406;1" begin="0s" dur="0.64s" fill="freeze"/></rect></clipPath><text x="0.00 4.05 8.10 12.15 16.20 20.25 24.30 28.35 32.40 36.45 40.50 44.55 48.60 52.65 56.70 60.75 64.80 68.85 72.90 76.95 81.00 85.05 89.10 93.15 97.20 101.25 105.30 109.35 113.40 117.45 121.50 125.55 129.60 133.65 137.70 141.75 145.80 149.85 153.90 157.95 162.00 166.05 170.10" y="20.82" font-size="6.7" font-weight="500" fill="#45515d" xml:space="preserve" clip-path="url(#r3)">                            ;rsXA5333522Ai:</text><clipPath id="r4"><rect x="-1" y="20.96" width="310" height="7.6"><animate attributeName="width" values="0;0;310" keyTimes="0;0.1791;1" begin="0s" dur="0.67s" fill="freeze"/></rect></clipPath><text x="0.00 4.05 8.10 12.15 16.20 20.25 24.30 28.35 32.40 36.45 40.50 44.55 48.60 52.65 56.70 60.75 64.80 68.85 72.90 76.95 81.00 85.05 89.10 93.15 97.20 101.25 105.30 109.35 113.40 117.45 121.50 125.55 129.60 133.65 137.70 141.75 145.80 149.85 153.90 157.95 162.00 166.05 170.10 174.15 178.20" y="27.76" font-size="6.7" font-weight="500" fill="#45515d" xml:space="preserve" clip-path="url(#r4)">                           2hhMh3hMMMMHGGG3r,</text><clipPath id="r5"><rect x="-1" y="27.90" width="310" height="7.6"><animate attributeName="width" values="0;0;310" keyTimes="0;0.2143;1" begin="0s" dur="0.70s" fill="freeze"/></rect></clipPath><text x="0.00 4.05 8.10 12.15 16.20 20.25 24.30 28.35 32.40 36.45 40.50 44.55 48.60 52.65 56.70 60.75 64.80 68.85 72.90 76.95 81.00 85.05 89.10 93.15 97.20 101.25 105.30 109.35 113.40 117.45 121.50 125.55 129.60 133.65 137.70 141.75 145.80 149.85 153.90 157.95 162.00 166.05 170.10 174.15 178.20 182.25 186.30" y="34.70" font-size="6.7" font-weight="500" fill="#45515d" xml:space="preserve" clip-path="url(#r5)">                          MGh35255553335hH#G5:,</text><clipPath id="r6"><rect x="-1" y="34.84" width="310" height="7.6"><animate attributeName="width" values="0;0;310" keyTimes="0;0.2466;1" begin="0s" dur="0.73s" fill="freeze"/></rect></clipPath><text x="0.00 4.05 8.10 12.15 16.20 20.25 24.30 28.35 32.40 36.45 40.50 44.55 48.60 52.65 56.70 60.75 64.80 68.85 72.90 76.95 81.00 85.05 89.10 93.15 97.20 101.25 105.30 109.35 113.40 117.45 121.50 125.55 129.60 133.65 137.70 141.75 145.80 149.85 153.90 157.95 162.00 166.05 170.10 174.15 178.20 182.25 186.30" y="41.64" font-size="6.7" font-weight="500" fill="#45515d" xml:space="preserve" clip-path="url(#r6)">                         5H5XssXXAAAAXXsXA3##A.</text><clipPath id="r7"><rect x="-1" y="41.78" width="310" height="7.6"><animate attributeName="width" values="0;0;310" keyTimes="0;0.2763;1" begin="0s" dur="0.76s" fill="freeze"/></rect></clipPath><text x="0.00 4.05 8.10 12.15 16.20 20.25 24.30 28.35 32.40 36.45 40.50 44.55 48.60 52.65 56.70 60.75 64.80 68.85 72.90 76.95 81.00 85.05 89.10 93.15 97.20 101.25 105.30 109.35 113.40 117.45 121.50 125.55 129.60 133.65 137.70 141.75 145.80 149.85 153.90 157.95 162.00 166.05 170.10 174.15 178.20 182.25 186.30 190.35" y="48.58" font-size="6.7" font-weight="500" fill="#45515d" xml:space="preserve" clip-path="url(#r7)">                        r2X..:;iirsssssssss2SG;.</text><clipPath id="r8"><rect x="-1" y="48.72" width="310" height="7.6"><animate attributeName="width" values="0;0;310" keyTimes="0;0.3038;1" begin="0s" dur="0.79s" fill="freeze"/></rect></clipPath><text x="0.00 4.05 8.10 12.15 16.20 20.25 24.30 28.35 32.40 36.45 40.50 44.55 48.60 52.65 56.70 60.75 64.80 68.85 72.90 76.95 81.00 85.05 89.10 93.15 97.20 101.25 105.30 109.35 113.40 117.45 121.50 125.55 129.60 133.65 137.70 141.75 145.80 149.85 153.90 157.95 162.00 166.05 170.10 174.15 178.20 182.25 186.30 190.35" y="55.52" font-size="6.7" font-weight="500" fill="#45515d" xml:space="preserve" clip-path="url(#r8)">                        XA, .:;iirssssssssXs5#X.</text><clipPath id="r9"><rect x="-1" y="55.66" width="310" height="7.6"><animate attributeName="width" values="0;0;310" keyTimes="0;0.3293;1" begin="0s" dur="0.82s" fill="freeze"/></rect></clipPath><text x="0.00 4.05 8.10 12.15 16.20 20.25 24.30 28.35 32.40 36.45 40.50 44.55 48.60 52.65 56.70 60.75 64.80 68.85 72.90 76.95 81.00 85.05 89.10 93.15 97.20 101.25 105.30 109.35 113.40 117.45 121.50 125.55 129.60 133.65 137.70 141.75 145.80 149.85 153.90 157.95 162.00 166.05 170.10 174.15 178.20 182.25 186.30 190.35 194.40" y="62.46" font-size="6.7" font-weight="500" fill="#45515d" xml:space="preserve" clip-path="url(#r9)">                       .XX,,:;irrrssssssXXXXAG2.,</text><clipPath id="r10"><rect x="-1" y="62.60" width="310" height="7.6"><animate attributeName="width" values="0;0;310" keyTimes="0;0.3529;1" begin="0s" dur="0.85s" fill="freeze"/></rect></clipPath><text x="0.00 4.05 8.10 12.15 16.20 20.25 24.30 28.35 32.40 36.45 40.50 44.55 48.60 52.65 56.70 60.75 64.80 68.85 72.90 76.95 81.00 85.05 89.10 93.15 97.20 101.25 105.30 109.35 113.40 117.45 121.50 125.55 129.60 133.65 137.70 141.75 145.80 149.85 153.90 157.95 162.00 166.05 170.10 174.15 178.20 182.25 186.30 190.35 194.40 198.45" y="69.40" font-size="6.7" font-weight="500" fill="#45515d" xml:space="preserve" clip-path="url(#r10)">                        rX;;ii;:;irrrrsssssssh5 ..</text><clipPath id="r11"><rect x="-1" y="69.54" width="310" height="7.6"><animate attributeName="width" values="0;0;310" keyTimes="0;0.3750;1" begin="0s" dur="0.88s" fill="freeze"/></rect></clipPath><text x="0.00 4.05 8.10 12.15 16.20 20.25 24.30 28.35 32.40 36.45 40.50 44.55 48.60 52.65 56.70 60.75 64.80 68.85 72.90 76.95 81.00 85.05 89.10 93.15 97.20 101.25 105.30 109.35 113.40 117.45 121.50 125.55 129.60 133.65 137.70 141.75 145.80 149.85 153.90 157.95 162.00 166.05 170.10 174.15 178.20 182.25 186.30 190.35 194.40 198.45" y="76.34" font-size="6.7" font-weight="500" fill="#45515d" xml:space="preserve" clip-path="url(#r11)">                      . ;A::,,:;issssAA5332Xs2A,..</text><clipPath id="r12"><rect x="-1" y="76.48" width="310" height="7.6"><animate attributeName="width" values="0;0;310" keyTimes="0;0.3956;1" begin="0s" dur="0.91s" fill="freeze"/></rect></clipPath><text x="0.00 4.05 8.10 12.15 16.20 20.25 24.30 28.35 32.40 36.45 40.50 44.55 48.60 52.65 56.70 60.75 64.80 68.85 72.90 76.95 81.00 85.05 89.10 93.15 97.20 101.25 105.30 109.35 113.40 117.45 121.50 125.55 129.60 133.65 137.70 141.75 145.80 149.85 153.90 157.95 162.00 166.05 170.10 174.15 178.20 182.25 186.30 190.35 194.40 198.45" y="83.28" font-size="6.7" font-weight="500" fill="#45515d" xml:space="preserve" clip-path="url(#r12)">                      ..,r:;r5hHGGMhG99&amp;BSGG2s2X..</text><clipPath id="r13"><rect x="-1" y="83.42" width="310" height="7.6"><animate attributeName="width" values="0;0;310" keyTimes="0;0.4149;1" begin="0s" dur="0.94s" fill="freeze"/></rect></clipPath><text x="0.00 4.05 8.10 12.15 16.20 20.25 24.30 28.35 32.40 36.45 40.50 44.55 48.60 52.65 56.70 60.75 64.80 68.85 72.90 76.95 81.00 85.05 89.10 93.15 97.20 101.25 105.30 109.35 113.40 117.45 121.50 125.55 129.60 133.65 137.70 141.75 145.80 149.85 153.90 157.95 162.00 166.05 170.10 174.15 178.20 182.25 186.30 190.35 194.40 198.45" y="90.22" font-size="6.7" font-weight="500" fill="#45515d" xml:space="preserve" clip-path="url(#r13)">                      ..r;rGHS9&amp;&amp;##A5&amp;&amp;&amp;9GHGXr5X::</text><clipPath id="r14"><rect x="-1" y="90.36" width="310" height="7.6"><animate attributeName="width" values="0;0;310" keyTimes="0;0.4330;1" begin="0s" dur="0.97s" fill="freeze"/></rect></clipPath><text x="0.00 4.05 8.10 12.15 16.20 20.25 24.30 28.35 32.40 36.45 40.50 44.55 48.60 52.65 56.70 60.75 64.80 68.85 72.90 76.95 81.00 85.05 89.10 93.15 97.20 101.25 105.30 109.35 113.40 117.45 121.50 125.55 129.60 133.65 137.70 141.75 145.80 149.85 153.90 157.95 162.00 166.05 170.10 174.15 178.20 182.25 186.30 190.35 194.40 198.45" y="97.16" font-size="6.7" font-weight="500" fill="#45515d" xml:space="preserve" clip-path="url(#r14)">                      . :X,X52MGMH2:i3##SHM5rr5Arr</text><clipPath id="r15"><rect x="-1" y="97.30" width="310" height="7.6"><animate attributeName="width" values="0;0;310" keyTimes="0;0.4500;1" begin="0s" dur="1.00s" fill="freeze"/></rect></clipPath><text x="0.00 4.05 8.10 12.15 16.20 20.25 24.30 28.35 32.40 36.45 40.50 44.55 48.60 52.65 56.70 60.75 64.80 68.85 72.90 76.95 81.00 85.05 89.10 93.15 97.20 101.25 105.30 109.35 113.40 117.45 121.50 125.55 129.60 133.65 137.70 141.75 145.80 149.85 153.90 157.95 162.00 166.05 170.10 174.15 178.20 182.25 186.30 190.35 194.40" y="104.10" font-size="6.7" font-weight="500" fill="#45515d" xml:space="preserve" clip-path="url(#r15)">                      ...i;.;rrAhA:;rrAMhAsrrX2sr</text><clipPath id="r16"><rect x="-1" y="104.24" width="310" height="7.6"><animate attributeName="width" values="0;0;310" keyTimes="0;0.4660;1" begin="0s" dur="1.03s" fill="freeze"/></rect></clipPath><text x="0.00 4.05 8.10 12.15 16.20 20.25 24.30 28.35 32.40 36.45 40.50 44.55 48.60 52.65 56.70 60.75 64.80 68.85 72.90 76.95 81.00 85.05 89.10 93.15 97.20 101.25 105.30 109.35 113.40 117.45 121.50 125.55 129.60 133.65 137.70 141.75 145.80 149.85 153.90 157.95 162.00 166.05 170.10 174.15 178.20 182.25 186.30 190.35 194.40" y="111.04" font-size="6.7" font-weight="500" fill="#45515d" xml:space="preserve" clip-path="url(#r16)">                        .,;,.:XhhA33hMh335Xrs2AsX</text><clipPath id="r17"><rect x="-1" y="111.18" width="310" height="7.6"><animate attributeName="width" values="0;0;310" keyTimes="0;0.4811;1" begin="0s" dur="1.06s" fill="freeze"/></rect></clipPath><text x="0.00 4.05 8.10 12.15 16.20 20.25 24.30 28.35 32.40 36.45 40.50 44.55 48.60 52.65 56.70 60.75 64.80 68.85 72.90 76.95 81.00 85.05 89.10 93.15 97.20 101.25 105.30 109.35 113.40 117.45 121.50 125.55 129.60 133.65 137.70 141.75 145.80 149.85 153.90 157.95 162.00 166.05 170.10 174.15 178.20 182.25 186.30 190.35" y="117.98" font-size="6.7" font-weight="500" fill="#45515d" xml:space="preserve" clip-path="url(#r17)">                      ,. .:::s5h33MGGHHhMH3235ss</text><clipPath id="r18"><rect x="-1" y="118.12" width="310" height="7.6"><animate attributeName="width" values="0;0;310" keyTimes="0;0.4954;1" begin="0s" dur="1.09s" fill="freeze"/></rect></clipPath><text x="0.00 4.05 8.10 12.15 16.20 20.25 24.30 28.35 32.40 36.45 40.50 44.55 48.60 52.65 56.70 60.75 64.80 68.85 72.90 76.95 81.00 85.05 89.10 93.15 97.20 101.25 105.30 109.35 113.40 117.45 121.50 125.55 129.60 133.65 137.70 141.75 145.80 149.85 153.90 157.95 162.00 166.05 170.10 174.15 178.20 182.25 186.30" y="124.92" font-size="6.7" font-weight="500" fill="#45515d" xml:space="preserve" clip-path="url(#r18)">                       i:,;;rX3GhAA53335hHh5h2r</text><clipPath id="r19"><rect x="-1" y="125.06" width="310" height="7.6"><animate attributeName="width" values="0;0;310" keyTimes="0;0.5089;1" begin="0s" dur="1.12s" fill="freeze"/></rect></clipPath><text x="0.00 4.05 8.10 12.15 16.20 20.25 24.30 28.35 32.40 36.45 40.50 44.55 48.60 52.65 56.70 60.75 64.80 68.85 72.90 76.95 81.00 85.05 89.10 93.15 97.20 101.25 105.30 109.35 113.40 117.45 121.50 125.55 129.60 133.65 137.70 141.75 145.80 149.85 153.90 157.95 162.00 166.05 170.10 174.15 178.20 182.25" y="131.86" font-size="6.7" font-weight="500" fill="#45515d" xml:space="preserve" clip-path="url(#r19)">                        rriirX5hAA3MHHh353hhhX</text><clipPath id="r20"><rect x="-1" y="132.00" width="310" height="7.6"><animate attributeName="width" values="0;0;310" keyTimes="0;0.5217;1" begin="0s" dur="1.15s" fill="freeze"/></rect></clipPath><text x="0.00 4.05 8.10 12.15 16.20 20.25 24.30 28.35 32.40 36.45 40.50 44.55 48.60 52.65 56.70 60.75 64.80 68.85 72.90 76.95 81.00 85.05 89.10 93.15 97.20 101.25 105.30 109.35 113.40 117.45 121.50 125.55 129.60 133.65 137.70 141.75 145.80 149.85 153.90 157.95 162.00 166.05 170.10 174.15 178.20 182.25" y="138.80" font-size="6.7" font-weight="500" fill="#45515d" xml:space="preserve" clip-path="url(#r20)">                         sisrrA2Ass2hh33333M2i</text><clipPath id="r21"><rect x="-1" y="138.94" width="310" height="7.6"><animate attributeName="width" values="0;0;310" keyTimes="0;0.5339;1" begin="0s" dur="1.18s" fill="freeze"/></rect></clipPath><text x="0.00 4.05 8.10 12.15 16.20 20.25 24.30 28.35 32.40 36.45 40.50 44.55 48.60 52.65 56.70 60.75 64.80 68.85 72.90 76.95 81.00 85.05 89.10 93.15 97.20 101.25 105.30 109.35 113.40 117.45 121.50 125.55 129.60 133.65 137.70 141.75 145.80 149.85 153.90 157.95 162.00 166.05 170.10 174.15 178.20" y="145.74" font-size="6.7" font-weight="500" fill="#45515d" xml:space="preserve" clip-path="url(#r21)">                          rsr.;AAXA5hhMMMMH3s</text><clipPath id="r22"><rect x="-1" y="145.88" width="310" height="7.6"><animate attributeName="width" values="0;0;310" keyTimes="0;0.5455;1" begin="0s" dur="1.21s" fill="freeze"/></rect></clipPath><text x="0.00 4.05 8.10 12.15 16.20 20.25 24.30 28.35 32.40 36.45 40.50 44.55 48.60 52.65 56.70 60.75 64.80 68.85 72.90 76.95 81.00 85.05 89.10 93.15 97.20 101.25 105.30 109.35 113.40 117.45 121.50 125.55 129.60 133.65 137.70 141.75 145.80 149.85 153.90 157.95 162.00 166.05 170.10 174.15 178.20" y="152.68" font-size="6.7" font-weight="500" fill="#45515d" xml:space="preserve" clip-path="url(#r22)">                          Xs, .r23MHHGGHMh2As</text><clipPath id="r23"><rect x="-1" y="152.82" width="310" height="7.6"><animate attributeName="width" values="0;0;310" keyTimes="0;0.5565;1" begin="0s" dur="1.24s" fill="freeze"/></rect></clipPath><text x="0.00 4.05 8.10 12.15 16.20 20.25 24.30 28.35 32.40 36.45 40.50 44.55 48.60 52.65 56.70 60.75 64.80 68.85 72.90 76.95 81.00 85.05 89.10 93.15 97.20 101.25 105.30 109.35 113.40 117.45 121.50 125.55 129.60 133.65 137.70 141.75 145.80 149.85 153.90 157.95 162.00 166.05 170.10 174.15 178.20" y="159.62" font-size="6.7" font-weight="500" fill="#45515d" xml:space="preserve" clip-path="url(#r23)">                          ss.  .;sX25355222s,</text><clipPath id="r24"><rect x="-1" y="159.76" width="310" height="7.6"><animate attributeName="width" values="0;0;310" keyTimes="0;0.5669;1" begin="0s" dur="1.27s" fill="freeze"/></rect></clipPath><text x="0.00 4.05 8.10 12.15 16.20 20.25 24.30 28.35 32.40 36.45 40.50 44.55 48.60 52.65 56.70 60.75 64.80 68.85 72.90 76.95 81.00 85.05 89.10 93.15 97.20 101.25 105.30 109.35 113.40 117.45 121.50 125.55 129.60 133.65 137.70 141.75 145.80 149.85 153.90 157.95 162.00 166.05 170.10 174.15 178.20 182.25 186.30 190.35 194.40" y="166.56" font-size="6.7" font-weight="500" fill="#45515d" xml:space="preserve" clip-path="url(#r24)">                         siX.    ,rXXXA25A;...s#G</text><clipPath id="r25"><rect x="-1" y="166.70" width="310" height="7.6"><animate attributeName="width" values="0;0;310" keyTimes="0;0.5769;1" begin="0s" dur="1.30s" fill="freeze"/></rect></clipPath><text x="0.00 4.05 8.10 12.15 16.20 20.25 24.30 28.35 32.40 36.45 40.50 44.55 48.60 52.65 56.70 60.75 64.80 68.85 72.90 76.95 81.00 85.05 89.10 93.15 97.20 101.25 105.30 109.35 113.40 117.45 121.50 125.55 129.60 133.65 137.70 141.75 145.80 149.85 153.90 157.95 162.00 166.05 170.10 174.15 178.20 182.25 186.30 190.35 194.40 198.45 202.50 206.55 210.60 214.65" y="173.50" font-size="6.7" font-weight="500" fill="#45515d" xml:space="preserve" clip-path="url(#r25)">                     2Xriii2:      .;;rr:.,,..3#SSSSGH</text><clipPath id="r26"><rect x="-1" y="173.64" width="310" height="7.6"><animate attributeName="width" values="0;0;310" keyTimes="0;0.5865;1" begin="0s" dur="1.33s" fill="freeze"/></rect></clipPath><text x="0.00 4.05 8.10 12.15 16.20 20.25 24.30 28.35 32.40 36.45 40.50 44.55 48.60 52.65 56.70 60.75 64.80 68.85 72.90 76.95 81.00 85.05 89.10 93.15 97.20 101.25 105.30 109.35 113.40 117.45 121.50 125.55 129.60 133.65 137.70 141.75 145.80 149.85 153.90 157.95 162.00 166.05 170.10 174.15 178.20 182.25 186.30 190.35 194.40 198.45 202.50 206.55 210.60 214.65 218.70 222.75 226.80 230.85 234.90 238.95" y="180.44" font-size="6.7" font-weight="500" fill="#45515d" xml:space="preserve" clip-path="url(#r26)">                  ssAAririr3r     :XXs23A;...iSSSSSSSSSSSSHh</text><clipPath id="r27"><rect x="-1" y="180.58" width="310" height="7.6"><animate attributeName="width" values="0;0;310" keyTimes="0;0.5956;1" begin="0s" dur="1.36s" fill="freeze"/></rect></clipPath><text x="0.00 4.05 8.10 12.15 16.20 20.25 24.30 28.35 32.40 36.45 40.50 44.55 48.60 52.65 56.70 60.75 64.80 68.85 72.90 76.95 81.00 85.05 89.10 93.15 97.20 101.25 105.30 109.35 113.40 117.45 121.50 125.55 129.60 133.65 137.70 141.75 145.80 149.85 153.90 157.95 162.00 166.05 170.10 174.15 178.20 182.25 186.30 190.35 194.40 198.45 202.50 206.55 210.60 214.65 218.70 222.75 226.80 230.85 234.90 238.95 243.00 247.05 251.10 255.15 259.20 263.25" y="187.38" font-size="6.7" font-weight="500" fill="#45515d" xml:space="preserve" clip-path="url(#r27)">              iirsA22srrrrr5s.  .rHGX3S#BGr:.A9SSSSSSSGGGSSSSSHM32</text><clipPath id="r28"><rect x="-1" y="187.52" width="310" height="7.6"><animate attributeName="width" values="0;0;310" keyTimes="0;0.6043;1" begin="0s" dur="1.39s" fill="freeze"/></rect></clipPath><text x="0.00 4.05 8.10 12.15 16.20 20.25 24.30 28.35 32.40 36.45 40.50 44.55 48.60 52.65 56.70 60.75 64.80 68.85 72.90 76.95 81.00 85.05 89.10 93.15 97.20 101.25 105.30 109.35 113.40 117.45 121.50 125.55 129.60 133.65 137.70 141.75 145.80 149.85 153.90 157.95 162.00 166.05 170.10 174.15 178.20 182.25 186.30 190.35 194.40 198.45 202.50 206.55 210.60 214.65 218.70 222.75 226.80 230.85 234.90 238.95 243.00 247.05 251.10 255.15 259.20 263.25 267.30" y="194.32" font-size="6.7" font-weight="500" fill="#45515d" xml:space="preserve" clip-path="url(#r28)">           iiisXAAAXAsrsssr5X:.:rrirrAGSHAAXih#S##SSS#SSSSSSSSSS###</text><clipPath id="r29"><rect x="-1" y="194.46" width="310" height="7.6"><animate attributeName="width" values="0;0;310" keyTimes="0;0.6127;1" begin="0s" dur="1.42s" fill="freeze"/></rect></clipPath><text x="0.00 4.05 8.10 12.15 16.20 20.25 24.30 28.35 32.40 36.45 40.50 44.55 48.60 52.65 56.70 60.75 64.80 68.85 72.90 76.95 81.00 85.05 89.10 93.15 97.20 101.25 105.30 109.35 113.40 117.45 121.50 125.55 129.60 133.65 137.70 141.75 145.80 149.85 153.90 157.95 162.00 166.05 170.10 174.15 178.20 182.25 186.30 190.35 194.40 198.45 202.50 206.55 210.60 214.65 218.70 222.75 226.80 230.85 234.90 238.95 243.00 247.05 251.10 255.15 259.20 263.25 267.30 271.35" y="201.26" font-size="6.7" font-weight="500" fill="#45515d" xml:space="preserve" clip-path="url(#r29)">           issX5hh352AAXsss25:;;::::iASHr;;:rG###S####SSS#SS######SS</text><clipPath id="r30"><rect x="-1" y="201.40" width="310" height="7.6"><animate attributeName="width" values="0;0;310" keyTimes="0;0.6207;1" begin="0s" dur="1.45s" fill="freeze"/></rect></clipPath><text x="0.00 4.05 8.10 12.15 16.20 20.25 24.30 28.35 32.40 36.45 40.50 44.55 48.60 52.65 56.70 60.75 64.80 68.85 72.90 76.95 81.00 85.05 89.10 93.15 97.20 101.25 105.30 109.35 113.40 117.45 121.50 125.55 129.60 133.65 137.70 141.75 145.80 149.85 153.90 157.95 162.00 166.05 170.10 174.15 178.20 182.25 186.30 190.35 194.40 198.45 202.50 206.55 210.60 214.65 218.70 222.75 226.80 230.85 234.90 238.95 243.00 247.05 251.10 255.15 259.20 263.25 267.30 271.35 275.40" y="208.20" font-size="6.7" font-weight="500" fill="#45515d" xml:space="preserve" clip-path="url(#r30)">          M25555h32222AAXXXXM;,,.  ,;5SMi:::XS##SSSSSSSSS#S#####9#S9A</text><clipPath id="r31"><rect x="-1" y="208.34" width="310" height="7.6"><animate attributeName="width" values="0;0;310" keyTimes="0;0.6284;1" begin="0s" dur="1.48s" fill="freeze"/></rect></clipPath><text x="0.00 4.05 8.10 12.15 16.20 20.25 24.30 28.35 32.40 36.45 40.50 44.55 48.60 52.65 56.70 60.75 64.80 68.85 72.90 76.95 81.00 85.05 89.10 93.15 97.20 101.25 105.30 109.35 113.40 117.45 121.50 125.55 129.60 133.65 137.70 141.75 145.80 149.85 153.90 157.95 162.00 166.05 170.10 174.15 178.20 182.25 186.30 190.35 194.40 198.45 202.50 206.55 210.60 214.65 218.70 222.75 226.80 230.85 234.90 238.95 243.00 247.05 251.10 255.15 259.20 263.25 267.30 271.35 275.40 279.45 283.50" y="215.14" font-size="6.7" font-weight="500" fill="#45515d" xml:space="preserve" clip-path="url(#r31)">         5Sh33352AAA22AXXAAX3X.,  ::i5GSh:,:h##SSSSSSSSS##S#####9#S#2.,</text><clipPath id="r32"><rect x="-1" y="215.28" width="310" height="7.6"><animate attributeName="width" values="0;0;310" keyTimes="0;0.6358;1" begin="0s" dur="1.51s" fill="freeze"/></rect></clipPath><text x="0.00 4.05 8.10 12.15 16.20 20.25 24.30 28.35 32.40 36.45 40.50 44.55 48.60 52.65 56.70 60.75 64.80 68.85 72.90 76.95 81.00 85.05 89.10 93.15 97.20 101.25 105.30 109.35 113.40 117.45 121.50 125.55 129.60 133.65 137.70 141.75 145.80 149.85 153.90 157.95 162.00 166.05 170.10 174.15 178.20 182.25 186.30 190.35 194.40 198.45 202.50 206.55 210.60 214.65 218.70 222.75 226.80 230.85 234.90 238.95 243.00 247.05 251.10 255.15 259.20 263.25 267.30 271.35 275.40 279.45 283.50" y="222.08" font-size="6.7" font-weight="500" fill="#45515d" xml:space="preserve" clip-path="url(#r32)">        25GShh35525222AAXXAA23:,..;;s5GG#2.rS#SSSSSSSSS#SSS####99#S#h,,</text><clipPath id="r33"><rect x="-1" y="222.22" width="310" height="7.6"><animate attributeName="width" values="0;0;310" keyTimes="0;0.6429;1" begin="0s" dur="1.54s" fill="freeze"/></rect></clipPath><text x="0.00 4.05 8.10 12.15 16.20 20.25 24.30 28.35 32.40 36.45 40.50 44.55 48.60 52.65 56.70 60.75 64.80 68.85 72.90 76.95 81.00 85.05 89.10 93.15 97.20 101.25 105.30 109.35 113.40 117.45 121.50 125.55 129.60 133.65 137.70 141.75 145.80 149.85 153.90 157.95 162.00 166.05 170.10 174.15 178.20 182.25 186.30 190.35 194.40 198.45 202.50 206.55 210.60 214.65 218.70 222.75 226.80 230.85 234.90 238.95 243.00 247.05 251.10 255.15 259.20 263.25 267.30 271.35 275.40 279.45 283.50" y="229.02" font-size="6.7" font-weight="500" fill="#45515d" xml:space="preserve" clip-path="url(#r33)">       i55MBH3335552AAAAXXXAAhA,,:;sA3HGGH;h#SSSSSSSSS##SSS####99##SSr.</text><clipPath id="r34"><rect x="-1" y="229.16" width="310" height="7.6"><animate attributeName="width" values="0;0;310" keyTimes="0;0.6497;1" begin="0s" dur="1.57s" fill="freeze"/></rect></clipPath><text x="0.00 4.05 8.10 12.15 16.20 20.25 24.30 28.35 32.40 36.45 40.50 44.55 48.60 52.65 56.70 60.75 64.80 68.85 72.90 76.95 81.00 85.05 89.10 93.15 97.20 101.25 105.30 109.35 113.40 117.45 121.50 125.55 129.60 133.65 137.70 141.75 145.80 149.85 153.90 157.95 162.00 166.05 170.10 174.15 178.20 182.25 186.30 190.35 194.40 198.45 202.50 206.55 210.60 214.65 218.70 222.75 226.80 230.85 234.90 238.95 243.00 247.05 251.10 255.15 259.20 263.25 267.30 271.35 275.40 279.45 283.50 287.55" y="235.96" font-size="6.7" font-weight="500" fill="#45515d" xml:space="preserve" clip-path="url(#r34)">       rh3h#9h335552222AAAA225Mi::r2A53h355S##SSSSSSSS9###SS###99####2.,</text><clipPath id="r35"><rect x="-1" y="236.10" width="310" height="7.6"><animate attributeName="width" values="0;0;310" keyTimes="0;0.6562;1" begin="0s" dur="1.60s" fill="freeze"/></rect></clipPath><text x="0.00 4.05 8.10 12.15 16.20 20.25 24.30 28.35 32.40 36.45 40.50 44.55 48.60 52.65 56.70 60.75 64.80 68.85 72.90 76.95 81.00 85.05 89.10 93.15 97.20 101.25 105.30 109.35 113.40 117.45 121.50 125.55 129.60 133.65 137.70 141.75 145.80 149.85 153.90 157.95 162.00 166.05 170.10 174.15 178.20 182.25 186.30 190.35 194.40 198.45 202.50 206.55 210.60 214.65 218.70 222.75 226.80 230.85 234.90 238.95 243.00 247.05 251.10 255.15 259.20 263.25 267.30 271.35 275.40 279.45 283.50 287.55" y="242.90" font-size="6.7" font-weight="500" fill="#45515d" xml:space="preserve" clip-path="url(#r35)">       rM3hHBM3355552555553335Hh;,2M55555AG###SSSSSS#9GGSSSS##999###S#r.</text><clipPath id="r36"><rect x="-1" y="243.04" width="310" height="7.6"><animate attributeName="width" values="0;0;310" keyTimes="0;0.6626;1" begin="0s" dur="1.63s" fill="freeze"/></rect></clipPath><text x="0.00 4.05 8.10 12.15 16.20 20.25 24.30 28.35 32.40 36.45 40.50 44.55 48.60 52.65 56.70 60.75 64.80 68.85 72.90 76.95 81.00 85.05 89.10 93.15 97.20 101.25 105.30 109.35 113.40 117.45 121.50 125.55 129.60 133.65 137.70 141.75 145.80 149.85 153.90 157.95 162.00 166.05 170.10 174.15 178.20 182.25 186.30 190.35 194.40 198.45 202.50 206.55 210.60 214.65 218.70 222.75 226.80 230.85 234.90 238.95 243.00 247.05 251.10 255.15 259.20 263.25 267.30 271.35 275.40 279.45 283.50 287.55" y="249.84" font-size="6.7" font-weight="500" fill="#45515d" xml:space="preserve" clip-path="url(#r36)">      .XHhhM9Gh33555333333hhh3h#2,5SMhhMhh##SSSSSSSSGMhGGH####999###S#G:</text><clipPath id="r37"><rect x="-1" y="249.98" width="310" height="7.6"><animate attributeName="width" values="0;0;310" keyTimes="0;0.6687;1" begin="0s" dur="1.66s" fill="freeze"/></rect></clipPath><text x="0.00 4.05 8.10 12.15 16.20 20.25 24.30 28.35 32.40 36.45 40.50 44.55 48.60 52.65 56.70 60.75 64.80 68.85 72.90 76.95 81.00 85.05 89.10 93.15 97.20 101.25 105.30 109.35 113.40 117.45 121.50 125.55 129.60 133.65 137.70 141.75 145.80 149.85 153.90 157.95 162.00 166.05 170.10 174.15 178.20 182.25 186.30 190.35 194.40 198.45 202.50 206.55 210.60 214.65 218.70 222.75 226.80 230.85 234.90 238.95 243.00 247.05 251.10 255.15 259.20 263.25 267.30 271.35 275.40 279.45 283.50 287.55 291.60" y="256.78" font-size="6.7" font-weight="500" fill="#45515d" xml:space="preserve" clip-path="url(#r37)">      .XHMhM#9h333333hh3hMMMMMhHSr3SGHGGM###S#S#SS##S#999#####B9999#SS3,,</text><clipPath id="r38"><rect x="-1" y="256.92" width="310" height="7.6"><animate attributeName="width" values="0;0;310" keyTimes="0;0.6746;1" begin="0s" dur="1.69s" fill="freeze"/></rect></clipPath><text x="0.00 4.05 8.10 12.15 16.20 20.25 24.30 28.35 32.40 36.45 40.50 44.55 48.60 52.65 56.70 60.75 64.80 68.85 72.90 76.95 81.00 85.05 89.10 93.15 97.20 101.25 105.30 109.35 113.40 117.45 121.50 125.55 129.60 133.65 137.70 141.75 145.80 149.85 153.90 157.95 162.00 166.05 170.10 174.15 178.20 182.25 186.30 190.35 194.40 198.45 202.50 206.55 210.60 214.65 218.70 222.75 226.80 230.85 234.90 238.95 243.00 247.05 251.10 255.15 259.20 263.25 267.30 271.35 275.40 279.45 283.50 287.55 291.60" y="263.72" font-size="6.7" font-weight="500" fill="#45515d" xml:space="preserve" clip-path="url(#r38)">      ,5MhhMSBG3h3333hhMMMMMMMMH#GM9###hS9########9#99#######9&amp;999#9##3,,</text><clipPath id="r39"><rect x="-1" y="263.86" width="310" height="7.6"><animate attributeName="width" values="0;0;310" keyTimes="0;0.6802;1" begin="0s" dur="1.72s" fill="freeze"/></rect></clipPath><text x="0.00 4.05 8.10 12.15 16.20 20.25 24.30 28.35 32.40 36.45 40.50 44.55 48.60 52.65 56.70 60.75 64.80 68.85 72.90 76.95 81.00 85.05 89.10 93.15 97.20 101.25 105.30 109.35 113.40 117.45 121.50 125.55 129.60 133.65 137.70 141.75 145.80 149.85 153.90 157.95 162.00 166.05 170.10 174.15 178.20 182.25 186.30 190.35 194.40 198.45 202.50 206.55 210.60 214.65 218.70 222.75 226.80 230.85 234.90 238.95 243.00 247.05 251.10 255.15 259.20 263.25 267.30 271.35 275.40 279.45 283.50 287.55 291.60" y="270.66" font-size="6.7" font-weight="500" fill="#45515d" xml:space="preserve" clip-path="url(#r39)">     .i323hhG99hh3333hhMHHMHHHGGG#9HMHhM9##9#9##99###########B&amp;B99####9h:</text><clipPath id="r40"><rect x="-1" y="270.80" width="310" height="7.6"><animate attributeName="width" values="0;0;310" keyTimes="0;0.6857;1" begin="0s" dur="1.75s" fill="freeze"/></rect></clipPath><text x="0.00 4.05 8.10 12.15 16.20 20.25 24.30 28.35 32.40 36.45 40.50 44.55 48.60 52.65 56.70 60.75 64.80 68.85 72.90 76.95 81.00 85.05 89.10 93.15 97.20 101.25 105.30 109.35 113.40 117.45 121.50 125.55 129.60 133.65 137.70 141.75 145.80 149.85 153.90 157.95 162.00 166.05 170.10 174.15 178.20 182.25 186.30 190.35 194.40 198.45 202.50 206.55 210.60 214.65 218.70 222.75 226.80 230.85 234.90 238.95 243.00 247.05 251.10 255.15 259.20 263.25 267.30 271.35 275.40 279.45 283.50 287.55 291.60 295.65" y="277.60" font-size="6.7" font-weight="500" fill="#45515d" xml:space="preserve" clip-path="url(#r40)">     .rA2MHMG9&amp;Ghh3553hMGHHGGSSSSS#Hh55#9999##999##9########9&amp;&amp;BB9####S#r,</text><clipPath id="r41"><rect x="-1" y="277.74" width="310" height="7.6"><animate attributeName="width" values="0;0;310" keyTimes="0;0.6910;1" begin="0s" dur="1.78s" fill="freeze"/></rect></clipPath><text x="0.00 4.05 8.10 12.15 16.20 20.25 24.30 28.35 32.40 36.45 40.50 44.55 48.60 52.65 56.70 60.75 64.80 68.85 72.90 76.95 81.00 85.05 89.10 93.15 97.20 101.25 105.30 109.35 113.40 117.45 121.50 125.55 129.60 133.65 137.70 141.75 145.80 149.85 153.90 157.95 162.00 166.05 170.10 174.15 178.20 182.25 186.30 190.35 194.40 198.45 202.50 206.55 210.60 214.65 218.70 222.75 226.80 230.85 234.90 238.95 243.00 247.05 251.10 255.15 259.20 263.25 267.30 271.35 275.40 279.45 283.50 287.55 291.60 295.65" y="284.54" font-size="6.7" font-weight="500" fill="#45515d" xml:space="preserve" clip-path="url(#r41)">     .r5hhMGSB@&amp;HMh333hMHGGSS###SS#B93G999999999############B@&amp;&amp;B9#####G:,</text><clipPath id="r42"><rect x="-1" y="284.68" width="310" height="7.6"><animate attributeName="width" values="0;0;310" keyTimes="0;0.6961;1" begin="0s" dur="1.81s" fill="freeze"/></rect></clipPath><text x="0.00 4.05 8.10 12.15 16.20 20.25 24.30 28.35 32.40 36.45 40.50 44.55 48.60 52.65 56.70 60.75 64.80 68.85 72.90 76.95 81.00 85.05 89.10 93.15 97.20 101.25 105.30 109.35 113.40 117.45 121.50 125.55 129.60 133.65 137.70 141.75 145.80 149.85 153.90 157.95 162.00 166.05 170.10 174.15 178.20 182.25 186.30 190.35 194.40 198.45 202.50 206.55 210.60 214.65 218.70 222.75 226.80 230.85 234.90 238.95 243.00 247.05 251.10 255.15 259.20 263.25 267.30 271.35 275.40 279.45 283.50 287.55 291.60 295.65" y="291.48" font-size="6.7" font-weight="500" fill="#45515d" xml:space="preserve" clip-path="url(#r42)">    ,,Ah3hGS#&amp;&amp;@S3MMMhh3hMHSSSS##S#93M9999999999############B@&amp;&amp;&amp;B9####95,</text><clipPath id="r43"><rect x="-1" y="291.62" width="310" height="7.6"><animate attributeName="width" values="0;0;310" keyTimes="0;0.7011;1" begin="0s" dur="1.84s" fill="freeze"/></rect></clipPath><text x="0.00 4.05 8.10 12.15 16.20 20.25 24.30 28.35 32.40 36.45 40.50 44.55 48.60 52.65 56.70 60.75 64.80 68.85 72.90 76.95 81.00 85.05 89.10 93.15 97.20 101.25 105.30 109.35 113.40 117.45 121.50 125.55 129.60 133.65 137.70 141.75 145.80 149.85 153.90 157.95 162.00 166.05 170.10 174.15 178.20 182.25 186.30 190.35 194.40 198.45 202.50 206.55 210.60 214.65 218.70 222.75 226.80 230.85 234.90 238.95 243.00 247.05 251.10 255.15 259.20 263.25 267.30 271.35 275.40 279.45 283.50 287.55 291.60 295.65" y="298.42" font-size="6.7" font-weight="500" fill="#45515d" xml:space="preserve" clip-path="url(#r43)">    .:55HSS#9&amp;&amp;@#533h53MhhhMHGS###9hh99999BB99999999999#####B@&amp;&amp;&amp;BB999###;</text><clipPath id="r44"><rect x="-1" y="298.56" width="310" height="7.6"><animate attributeName="width" values="0;0;310" keyTimes="0;0.7059;1" begin="0s" dur="1.87s" fill="freeze"/></rect></clipPath><text x="0.00 4.05 8.10 12.15 16.20 20.25 24.30 28.35 32.40 36.45 40.50 44.55 48.60 52.65 56.70 60.75 64.80 68.85 72.90 76.95 81.00 85.05 89.10 93.15 97.20 101.25 105.30 109.35 113.40 117.45 121.50 125.55 129.60 133.65 137.70 141.75 145.80 149.85 153.90 157.95 162.00 166.05 170.10 174.15 178.20 182.25 186.30 190.35 194.40 198.45 202.50 206.55 210.60 214.65 218.70 222.75 226.80 230.85 234.90 238.95 243.00 247.05 251.10 255.15 259.20 263.25 267.30 271.35 275.40 279.45 283.50 287.55 291.60 295.65" y="305.36" font-size="6.7" font-weight="500" fill="#45515d" xml:space="preserve" clip-path="url(#r44)">    .r3H#SG#B&amp;@@B3555A2GHMMMMGS##9M3#999BB9####999999h2H9###B@@&amp;&amp;BBBB9##S;</text><clipPath id="r45"><rect x="-1" y="305.50" width="310" height="7.6"><animate attributeName="width" values="0;0;310" keyTimes="0;0.7105;1" begin="0s" dur="1.90s" fill="freeze"/></rect></clipPath><text x="0.00 4.05 8.10 12.15 16.20 20.25 24.30 28.35 32.40 36.45 40.50 44.55 48.60 52.65 56.70 60.75 64.80 68.85 72.90 76.95 81.00 85.05 89.10 93.15 97.20 101.25 105.30 109.35 113.40 117.45 121.50 125.55 129.60 133.65 137.70 141.75 145.80 149.85 153.90 157.95 162.00 166.05 170.10 174.15 178.20 182.25 186.30 190.35 194.40 198.45 202.50 206.55 210.60 214.65 218.70 222.75 226.80 230.85 234.90 238.95 243.00 247.05 251.10 255.15 259.20 263.25 267.30 271.35 275.40 279.45 283.50 287.55 291.60 295.65" y="312.30" font-size="6.7" font-weight="500" fill="#45515d" xml:space="preserve" clip-path="url(#r45)">    .sGSGG#9B@@&amp;@H553hhHSGGHHGSS#G3#99BB9#####9999999MhS9###&amp;@&amp;&amp;&amp;BBBB999H:</text><clipPath id="r46"><rect x="-1" y="312.44" width="310" height="7.6"><animate attributeName="width" values="0;0;310" keyTimes="0;0.7150;1" begin="0s" dur="1.93s" fill="freeze"/></rect></clipPath><text x="0.00 4.05 8.10 12.15 16.20 20.25 24.30 28.35 32.40 36.45 40.50 44.55 48.60 52.65 56.70 60.75 64.80 68.85 72.90 76.95 81.00 85.05 89.10 93.15 97.20 101.25 105.30 109.35 113.40 117.45 121.50 125.55 129.60 133.65 137.70 141.75 145.80 149.85 153.90 157.95 162.00 166.05 170.10 174.15 178.20 182.25 186.30 190.35 194.40 198.45 202.50 206.55 210.60 214.65 218.70 222.75 226.80 230.85 234.90 238.95 243.00 247.05 251.10 255.15 259.20 263.25 267.30 271.35 275.40 279.45 283.50 287.55 291.60 295.65" y="319.24" font-size="6.7" font-weight="500" fill="#45515d" xml:space="preserve" clip-path="url(#r46)">    :MSHHS99&amp;&amp;&amp;@&amp;SMh3hhhMGSGGGS#S3S99B99####999999999BB9###9&amp;@@&amp;&amp;BB999##h,</text><clipPath id="r47"><rect x="-1" y="319.38" width="310" height="7.6"><animate attributeName="width" values="0;0;310" keyTimes="0;0.7194;1" begin="0s" dur="1.96s" fill="freeze"/></rect></clipPath><text x="0.00 4.05 8.10 12.15 16.20 20.25 24.30 28.35 32.40 36.45 40.50 44.55 48.60 52.65 56.70 60.75 64.80 68.85 72.90 76.95 81.00 85.05 89.10 93.15 97.20 101.25 105.30 109.35 113.40 117.45 121.50 125.55 129.60 133.65 137.70 141.75 145.80 149.85 153.90 157.95 162.00 166.05 170.10 174.15 178.20 182.25 186.30 190.35 194.40 198.45 202.50 206.55 210.60 214.65 218.70 222.75 226.80 230.85 234.90 238.95 243.00 247.05 251.10 255.15 259.20 263.25 267.30 271.35 275.40 279.45 283.50 287.55 291.60 295.65" y="326.18" font-size="6.7" font-weight="500" fill="#45515d" xml:space="preserve" clip-path="url(#r47)">    rMhH#99B&amp;&amp;&amp;#sMMMMhhhhMHHHGS9hH99B9#####999999999999###99&amp;@@&amp;&amp;BB99999#G</text><clipPath id="r48"><rect x="-1" y="326.32" width="310" height="7.6"><animate attributeName="width" values="0;0;310" keyTimes="0;0.7236;1" begin="0s" dur="1.99s" fill="freeze"/></rect></clipPath><text x="0.00 4.05 8.10 12.15 16.20 20.25 24.30 28.35 32.40 36.45 40.50 44.55 48.60 52.65 56.70 60.75 64.80 68.85 72.90 76.95 81.00 85.05 89.10 93.15 97.20 101.25 105.30 109.35 113.40 117.45 121.50 125.55 129.60 133.65 137.70 141.75 145.80 149.85 153.90 157.95 162.00 166.05 170.10 174.15 178.20 182.25 186.30 190.35 194.40 198.45 202.50 206.55 210.60 214.65 218.70 222.75 226.80 230.85 234.90 238.95 243.00 247.05 251.10 255.15 259.20 263.25 267.30 271.35 275.40 279.45 283.50 287.55 291.60 295.65" y="333.12" font-size="6.7" font-weight="500" fill="#45515d" xml:space="preserve" clip-path="url(#r48)">   .rMS9BBBBB&amp;G. 5MHGHMhMMMMMG9Hh9BB9#####9999999999999##9#9#&amp;&amp;&amp;&amp;&amp;&amp;&amp;&amp;BB99M</text><clipPath id="r49"><rect x="-1" y="333.26" width="310" height="7.6"><animate attributeName="width" values="0;0;310" keyTimes="0;0.7277;1" begin="0s" dur="2.02s" fill="freeze"/></rect></clipPath><text x="0.00 4.05 8.10 12.15 16.20 20.25 24.30 28.35 32.40 36.45 40.50 44.55 48.60 52.65 56.70 60.75 64.80 68.85 72.90 76.95 81.00 85.05 89.10 93.15 97.20 101.25 105.30 109.35 113.40 117.45 121.50 125.55 129.60 133.65 137.70 141.75 145.80 149.85 153.90 157.95 162.00 166.05 170.10 174.15 178.20 182.25 186.30 190.35 194.40 198.45 202.50 206.55 210.60 214.65 218.70 222.75 226.80 230.85 234.90 238.95 243.00 247.05 251.10 255.15 259.20 263.25 267.30 271.35 275.40 279.45 283.50 287.55 291.60 295.65" y="340.06" font-size="6.7" font-weight="500" fill="#45515d" xml:space="preserve" clip-path="url(#r49)">   A#9BBBBBBB&amp;9i XMhMGGHMMHHGSHh9&amp;B99##999999999999999###9999@@@&amp;&amp;@@&amp;B9992</text><clipPath id="r50"><rect x="-1" y="340.20" width="310" height="7.6"><animate attributeName="width" values="0;0;310" keyTimes="0;0.7317;1" begin="0s" dur="2.05s" fill="freeze"/></rect></clipPath><text x="0.00 4.05 8.10 12.15 16.20 20.25 24.30 28.35 32.40 36.45 40.50 44.55 48.60 52.65 56.70 60.75 64.80 68.85 72.90 76.95 81.00 85.05 89.10 93.15 97.20 101.25 105.30 109.35 113.40 117.45 121.50 125.55 129.60 133.65 137.70 141.75 145.80 149.85 153.90 157.95 162.00 166.05 170.10 174.15 178.20 182.25 186.30 190.35 194.40 198.45 202.50 206.55 210.60 214.65 218.70 222.75 226.80 230.85 234.90 238.95 243.00 247.05 251.10 255.15 259.20 263.25 267.30 271.35 275.40 279.45 283.50 287.55 291.60 295.65" y="347.00" font-size="6.7" font-weight="500" fill="#45515d" xml:space="preserve" clip-path="url(#r50)">   hHHSS###9B&amp;@s ;MhMMGSSGGGG#H9&amp;B99999B99999###99999######BhA3h&amp;&amp;&amp;BBBB999</text><clipPath id="r51"><rect x="-1" y="347.14" width="310" height="7.6"><animate attributeName="width" values="0;0;310" keyTimes="0;0.7356;1" begin="0s" dur="2.08s" fill="freeze"/></rect></clipPath><text x="0.00 4.05 8.10 12.15 16.20 20.25 24.30 28.35 32.40 36.45 40.50 44.55 48.60 52.65 56.70 60.75 64.80 68.85 72.90 76.95 81.00 85.05 89.10 93.15 97.20 101.25 105.30 109.35 113.40 117.45 121.50 125.55 129.60 133.65 137.70 141.75 145.80 149.85 153.90 157.95 162.00 166.05 170.10 174.15 178.20 182.25 186.30 190.35 194.40 198.45 202.50 206.55 210.60 214.65 218.70 222.75 226.80 230.85 234.90 238.95 243.00 247.05 251.10 255.15 259.20 263.25 267.30 271.35 275.40 279.45 283.50 287.55 291.60 295.65" y="353.94" font-size="6.7" font-weight="500" fill="#45515d" xml:space="preserve" clip-path="url(#r51)">   23H#9BB&amp;B&amp;&amp;@A  hHMMHHGSSSSM2hBB999999999999BB9999#######B3  A@&amp;&amp;&amp;B9#99#</text><clipPath id="r52"><rect x="-1" y="354.08" width="310" height="7.6"><animate attributeName="width" values="0;0;310" keyTimes="0;0.7393;1" begin="0s" dur="2.11s" fill="freeze"/></rect></clipPath><text x="0.00 4.05 8.10 12.15 16.20 20.25 24.30 28.35 32.40 36.45 40.50 44.55 48.60 52.65 56.70 60.75 64.80 68.85 72.90 76.95 81.00 85.05 89.10 93.15 97.20 101.25 105.30 109.35 113.40 117.45 121.50 125.55 129.60 133.65 137.70 141.75 145.80 149.85 153.90 157.95 162.00 166.05 170.10 174.15 178.20 182.25 186.30 190.35 194.40 198.45 202.50 206.55 210.60 214.65 218.70 222.75 226.80 230.85 234.90 238.95 243.00 247.05 251.10 255.15 259.20 263.25 267.30 271.35 275.40 279.45 283.50 287.55 291.60 295.65 299.70" y="360.88" font-size="6.7" font-weight="500" fill="#45515d" xml:space="preserve" clip-path="url(#r52)">   rHS999B&amp;&amp;&amp;&amp;&amp;@: hGGGGGGGSS9X.:GB9999999###9S539#9########9G. 2&amp;&amp;&amp;BBBB#S#X</text><clipPath id="r53"><rect x="-1" y="361.02" width="310" height="7.6"><animate attributeName="width" values="0;0;310" keyTimes="0;0.7430;1" begin="0s" dur="2.14s" fill="freeze"/></rect></clipPath><text x="0.00 4.05 8.10 12.15 16.20 20.25 24.30 28.35 32.40 36.45 40.50 44.55 48.60 52.65 56.70 60.75 64.80 68.85 72.90 76.95 81.00 85.05 89.10 93.15 97.20 101.25 105.30 109.35 113.40 117.45 121.50 125.55 129.60 133.65 137.70 141.75 145.80 149.85 153.90 157.95 162.00 166.05 170.10 174.15 178.20 182.25 186.30 190.35 194.40 198.45 202.50 206.55 210.60 214.65 218.70 222.75 226.80 230.85 234.90 238.95 243.00 247.05 251.10 255.15 259.20 263.25 267.30 271.35 275.40 279.45 283.50 287.55 291.60 295.65 299.70" y="367.82" font-size="6.7" font-weight="500" fill="#45515d" xml:space="preserve" clip-path="url(#r53)">   ;MSS#99B&amp;&amp;&amp;&amp;H .MGGGGGSSSSS#HS9#####9#999#&amp;5:r999#########9: 5@BBB999B9S2</text></g><text x="390" y="64" font-size="13" font-weight="400" fill="#885821" >~/byrm-tsn</text><text x="386" y="128" font-size="46" font-weight="650" fill="#242b32" >Bayram Tosun</text><text x="390" y="172" font-size="20" font-weight="400" fill="#242b32" >Software. Learning. Curiosity.</text><text x="390" y="237" font-size="17" font-weight="400" fill="#242b32" >Backend development</text><text x="390" y="267" font-size="17" font-weight="400" fill="#242b32" >Machine learning</text><text x="390" y="317" font-size="14" font-weight="400" fill="#56616b" >BSc + MSc Computer Science</text><text x="390" y="346" font-size="14" font-weight="400" fill="#56616b" >London, UK</text><text x="390" y="400" font-size="14" font-weight="400" fill="#885821" >&gt; always curious</text><text x="531" y="400" fill="#885821" font-size="14">_<animate attributeName="opacity" values="1;0;1" keyTimes="0;0.5;1" dur="1.4s" calcMode="discrete" repeatCount="indefinite"/></text></g>
</svg>
