<svg xmlns="http://www.w3.org/2000/svg" width="640" height="248" viewBox="0 0 640 248" role="img" aria-labelledby="title desc">
<title id="title">Bayram Tosun — backend development and machine learning</title><desc id="desc">Animated half-body ASCII portrait from my photograph, with sunglasses, scarf and jacket, and the background excluded. Computer Science BSc and MSc graduate in London.</desc>
<rect width="640" height="248" rx="8" fill="#f6f5f1"/>
<g font-family="'SFMono-Regular',Consolas,'Liberation Mono',monospace"><g transform="translate(20 15) scale(0.38888)" aria-hidden="true"><clipPath id="r1"><rect x="-1" y="0.14" width="386.75" height="7.6"><animate attributeName="width" values="0;0;386.75" keyTimes="0;0.0405;1" begin="0s" dur="0.47s" fill="freeze"/></rect></clipPath><text x="0.00 4.05 8.10 12.15 16.20 20.25 24.30 28.35 32.40 36.45 40.50 44.55 48.60 52.65 56.70 60.75 64.80 68.85 72.90 76.95 81.00 85.05 89.10 93.15 97.20 101.25 105.30 109.35 113.40 117.45 121.50 125.55 129.60 133.65 137.70 141.75 145.80 149.85 153.90 157.95 162.00 166.05 170.10 174.15 178.20 182.25" y="6.94" font-size="6.7" font-weight="500" fill="#45515d" xml:space="preserve" clip-path="url(#r1)">                                        Asr ;:</text><clipPath id="r2"><rect x="-1" y="7.08" width="386.75" height="7.6"><animate attributeName="width" values="0;0;386.75" keyTimes="0;0.0779;1" begin="0s" dur="0.49s" fill="freeze"/></rect></clipPath><text x="0.00 4.05 8.10 12.15 16.20 20.25 24.30 28.35 32.40 36.45 40.50 44.55 48.60 52.65 56.70 60.75 64.80 68.85 72.90 76.95 81.00 85.05 89.10 93.15 97.20 101.25 105.30 109.35 113.40 117.45 121.50 125.55 129.60 133.65 137.70 141.75 145.80 149.85 153.90 157.95 162.00 166.05 170.10 174.15 178.20 182.25 186.30 190.35 194.40 198.45 202.50 206.55" y="13.88" font-size="6.7" font-weight="500" fill="#45515d" xml:space="preserve" clip-path="url(#r2)">                                   AhHGSHhAAXsXA5252</text><clipPath id="r3"><rect x="-1" y="14.02" width="386.75" height="7.6"><animate attributeName="width" values="0;0;386.75" keyTimes="0;0.1124;1" begin="0s" dur="0.51s" fill="freeze"/></rect></clipPath><text x="0.00 4.05 8.10 12.15 16.20 20.25 24.30 28.35 32.40 36.45 40.50 44.55 48.60 52.65 56.70 60.75 64.80 68.85 72.90 76.95 81.00 85.05 89.10 93.15 97.20 101.25 105.30 109.35 113.40 117.45 121.50 125.55 129.60 133.65 137.70 141.75 145.80 149.85 153.90 157.95 162.00 166.05 170.10 174.15 178.20 182.25 186.30 190.35 194.40 198.45 202.50 206.55 210.60 214.65 218.70" y="20.82" font-size="6.7" font-weight="500" fill="#45515d" xml:space="preserve" clip-path="url(#r3)">                                  3H#99#GMh3hMHSSMHHhXr</text><clipPath id="r4"><rect x="-1" y="20.96" width="386.75" height="7.6"><animate attributeName="width" values="0;0;386.75" keyTimes="0;0.1445;1" begin="0s" dur="0.53s" fill="freeze"/></rect></clipPath><text x="0.00 4.05 8.10 12.15 16.20 20.25 24.30 28.35 32.40 36.45 40.50 44.55 48.60 52.65 56.70 60.75 64.80 68.85 72.90 76.95 81.00 85.05 89.10 93.15 97.20 101.25 105.30 109.35 113.40 117.45 121.50 125.55 129.60 133.65 137.70 141.75 145.80 149.85 153.90 157.95 162.00 166.05 170.10 174.15 178.20 182.25 186.30 190.35 194.40 198.45 202.50 206.55 210.60 214.65 218.70 222.75" y="27.76" font-size="6.7" font-weight="500" fill="#45515d" xml:space="preserve" clip-path="url(#r4)">                                 hSS#9##99####9SSMhh322s</text><clipPath id="r5"><rect x="-1" y="27.90" width="386.75" height="7.6"><animate attributeName="width" values="0;0;386.75" keyTimes="0;0.1743;1" begin="0s" dur="0.55s" fill="freeze"/></rect></clipPath><text x="0.00 4.05 8.10 12.15 16.20 20.25 24.30 28.35 32.40 36.45 40.50 44.55 48.60 52.65 56.70 60.75 64.80 68.85 72.90 76.95 81.00 85.05 89.10 93.15 97.20 101.25 105.30 109.35 113.40 117.45 121.50 125.55 129.60 133.65 137.70 141.75 145.80 149.85 153.90 157.95 162.00 166.05 170.10 174.15 178.20 182.25 186.30 190.35 194.40 198.45 202.50 206.55 210.60 214.65 218.70 222.75" y="34.70" font-size="6.7" font-weight="500" fill="#45515d" xml:space="preserve" clip-path="url(#r5)">                                G9##9#GHMh3h3MhhhMMHM35s</text><clipPath id="r6"><rect x="-1" y="34.84" width="386.75" height="7.6"><animate attributeName="width" values="0;0;386.75" keyTimes="0;0.2021;1" begin="0s" dur="0.56s" fill="freeze"/></rect></clipPath><text x="0.00 4.05 8.10 12.15 16.20 20.25 24.30 28.35 32.40 36.45 40.50 44.55 48.60 52.65 56.70 60.75 64.80 68.85 72.90 76.95 81.00 85.05 89.10 93.15 97.20 101.25 105.30 109.35 113.40 117.45 121.50 125.55 129.60 133.65 137.70 141.75 145.80 149.85 153.90 157.95 162.00 166.05 170.10 174.15 178.20 182.25 186.30 190.35 194.40 198.45 202.50 206.55 210.60 214.65 218.70 222.75 226.80" y="41.64" font-size="6.7" font-weight="500" fill="#45515d" xml:space="preserve" clip-path="url(#r6)">                               G##9##SMAsrrrrrsssXA55Ar:r</text><clipPath id="r7"><rect x="-1" y="41.78" width="386.75" height="7.6"><animate attributeName="width" values="0;0;386.75" keyTimes="0;0.2281;1" begin="0s" dur="0.58s" fill="freeze"/></rect></clipPath><text x="0.00 4.05 8.10 12.15 16.20 20.25 24.30 28.35 32.40 36.45 40.50 44.55 48.60 52.65 56.70 60.75 64.80 68.85 72.90 76.95 81.00 85.05 89.10 93.15 97.20 101.25 105.30 109.35 113.40 117.45 121.50 125.55 129.60 133.65 137.70 141.75 145.80 149.85 153.90 157.95 162.00 166.05 170.10 174.15 178.20 182.25 186.30 190.35 194.40 198.45 202.50 206.55 210.60 214.65 218.70" y="48.58" font-size="6.7" font-weight="500" fill="#45515d" xml:space="preserve" clip-path="url(#r7)">                               S###SSG5riiiiiiiiiiiii:.</text><clipPath id="r8"><rect x="-1" y="48.72" width="386.75" height="7.6"><animate attributeName="width" values="0;0;386.75" keyTimes="0;0.2525;1" begin="0s" dur="0.60s" fill="freeze"/></rect></clipPath><text x="0.00 4.05 8.10 12.15 16.20 20.25 24.30 28.35 32.40 36.45 40.50 44.55 48.60 52.65 56.70 60.75 64.80 68.85 72.90 76.95 81.00 85.05 89.10 93.15 97.20 101.25 105.30 109.35 113.40 117.45 121.50 125.55 129.60 133.65 137.70 141.75 145.80 149.85 153.90 157.95 162.00 166.05 170.10 174.15 178.20 182.25 186.30 190.35 194.40 198.45 202.50 206.55 210.60 214.65 218.70" y="55.52" font-size="6.7" font-weight="500" fill="#45515d" xml:space="preserve" clip-path="url(#r8)">                              MSSGMMM3sriiiiiiii;ii;;,,</text><clipPath id="r9"><rect x="-1" y="55.66" width="386.75" height="7.6"><animate attributeName="width" values="0;0;386.75" keyTimes="0;0.2754;1" begin="0s" dur="0.62s" fill="freeze"/></rect></clipPath><text x="0.00 4.05 8.10 12.15 16.20 20.25 24.30 28.35 32.40 36.45 40.50 44.55 48.60 52.65 56.70 60.75 64.80 68.85 72.90 76.95 81.00 85.05 89.10 93.15 97.20 101.25 105.30 109.35 113.40 117.45 121.50 125.55 129.60 133.65 137.70 141.75 145.80 149.85 153.90 157.95 162.00 166.05 170.10 174.15 178.20 182.25 186.30 190.35 194.40 198.45 202.50 206.55 210.60 214.65 218.70 222.75" y="62.46" font-size="6.7" font-weight="500" fill="#45515d" xml:space="preserve" clip-path="url(#r9)">                              5GHMhh3Xsrriiiii;;;;;;;;:,</text><clipPath id="r10"><rect x="-1" y="62.60" width="386.75" height="7.6"><animate attributeName="width" values="0;0;386.75" keyTimes="0;0.2969;1" begin="0s" dur="0.64s" fill="freeze"/></rect></clipPath><text x="0.00 4.05 8.10 12.15 16.20 20.25 24.30 28.35 32.40 36.45 40.50 44.55 48.60 52.65 56.70 60.75 64.80 68.85 72.90 76.95 81.00 85.05 89.10 93.15 97.20 101.25 105.30 109.35 113.40 117.45 121.50 125.55 129.60 133.65 137.70 141.75 145.80 149.85 153.90 157.95 162.00 166.05 170.10 174.15 178.20 182.25 186.30 190.35 194.40 198.45 202.50 206.55 210.60 214.65 218.70" y="69.40" font-size="6.7" font-weight="500" fill="#45515d" xml:space="preserve" clip-path="url(#r10)">                              2MMhh52Xrriiiriii;;;;;;;,</text><clipPath id="r11"><rect x="-1" y="69.54" width="386.75" height="7.6"><animate attributeName="width" values="0;0;386.75" keyTimes="0;0.3171;1" begin="0s" dur="0.66s" fill="freeze"/></rect></clipPath><text x="0.00 4.05 8.10 12.15 16.20 20.25 24.30 28.35 32.40 36.45 40.50 44.55 48.60 52.65 56.70 60.75 64.80 68.85 72.90 76.95 81.00 85.05 89.10 93.15 97.20 101.25 105.30 109.35 113.40 117.45 121.50 125.55 129.60 133.65 137.70 141.75 145.80 149.85 153.90 157.95 162.00 166.05 170.10 174.15 178.20 182.25 186.30 190.35 194.40 198.45 202.50 206.55 210.60 214.65 218.70 222.75" y="76.34" font-size="6.7" font-weight="500" fill="#45515d" xml:space="preserve" clip-path="url(#r11)">                               hhhMh32Xsrrrrrrsrii;;;;;.</text><clipPath id="r12"><rect x="-1" y="76.48" width="386.75" height="7.6"><animate attributeName="width" values="0;0;386.75" keyTimes="0;0.3363;1" begin="0s" dur="0.68s" fill="freeze"/></rect></clipPath><text x="0.00 4.05 8.10 12.15 16.20 20.25 24.30 28.35 32.40 36.45 40.50 44.55 48.60 52.65 56.70 60.75 64.80 68.85 72.90 76.95 81.00 85.05 89.10 93.15 97.20 101.25 105.30 109.35 113.40 117.45 121.50 125.55 129.60 133.65 137.70 141.75 145.80 149.85 153.90 157.95 162.00 166.05 170.10 174.15 178.20 182.25 186.30 190.35 194.40 198.45 202.50 206.55 210.60 214.65 218.70 222.75 226.80 230.85 234.90" y="83.28" font-size="6.7" font-weight="500" fill="#45515d" xml:space="preserve" clip-path="url(#r12)">                              ssX53GSMGGGHHMHGHGHM5XrrXXr:.</text><clipPath id="r13"><rect x="-1" y="83.42" width="386.75" height="7.6"><animate attributeName="width" values="0;0;386.75" keyTimes="0;0.3544;1" begin="0s" dur="0.70s" fill="freeze"/></rect></clipPath><text x="0.00 4.05 8.10 12.15 16.20 20.25 24.30 28.35 32.40 36.45 40.50 44.55 48.60 52.65 56.70 60.75 64.80 68.85 72.90 76.95 81.00 85.05 89.10 93.15 97.20 101.25 105.30 109.35 113.40 117.45 121.50 125.55 129.60 133.65 137.70 141.75 145.80 149.85 153.90 157.95 162.00 166.05 170.10 174.15 178.20 182.25 186.30 190.35 194.40 198.45 202.50 206.55 210.60 214.65 218.70 222.75 226.80 230.85 234.90 238.95 243.00 247.05" y="90.22" font-size="6.7" font-weight="500" fill="#45515d" xml:space="preserve" clip-path="url(#r13)">                              Airrsh2sXXA25MGGGGGGGSMhMHMhMGHM</text><clipPath id="r14"><rect x="-1" y="90.36" width="386.75" height="7.6"><animate attributeName="width" values="0;0;386.75" keyTimes="0;0.3715;1" begin="0s" dur="0.72s" fill="freeze"/></rect></clipPath><text x="0.00 4.05 8.10 12.15 16.20 20.25 24.30 28.35 32.40 36.45 40.50 44.55 48.60 52.65 56.70 60.75 64.80 68.85 72.90 76.95 81.00 85.05 89.10 93.15 97.20 101.25 105.30 109.35 113.40 117.45 121.50 125.55 129.60 133.65 137.70 141.75 145.80 149.85 153.90 157.95 162.00 166.05 170.10 174.15 178.20 182.25 186.30 190.35 194.40 198.45 202.50 206.55 210.60 214.65 218.70 222.75 226.80 230.85 234.90 238.95 243.00 247.05" y="97.16" font-size="6.7" font-weight="500" fill="#45515d" xml:space="preserve" clip-path="url(#r14)">                              rXXsi5Ai;iirX2GGGGHGMG3AMHM5iis5</text><clipPath id="r15"><rect x="-1" y="97.30" width="386.75" height="7.6"><animate attributeName="width" values="0;0;386.75" keyTimes="0;0.3878;1" begin="0s" dur="0.73s" fill="freeze"/></rect></clipPath><text x="0.00 4.05 8.10 12.15 16.20 20.25 24.30 28.35 32.40 36.45 40.50 44.55 48.60 52.65 56.70 60.75 64.80 68.85 72.90 76.95 81.00 85.05 89.10 93.15 97.20 101.25 105.30 109.35 113.40 117.45 121.50 125.55 129.60 133.65 137.70 141.75 145.80 149.85 153.90 157.95 162.00 166.05 170.10 174.15 178.20 182.25 186.30 190.35 194.40 198.45 202.50 206.55 210.60 214.65 218.70 222.75 226.80 230.85 234.90 238.95 243.00" y="104.10" font-size="6.7" font-weight="500" fill="#45515d" xml:space="preserve" clip-path="url(#r15)">                              rsAsi52i;;iirAS#SGGG#HXrr5X:;;A</text><clipPath id="r16"><rect x="-1" y="104.24" width="386.75" height="7.6"><animate attributeName="width" values="0;0;386.75" keyTimes="0;0.4032;1" begin="0s" dur="0.75s" fill="freeze"/></rect></clipPath><text x="0.00 4.05 8.10 12.15 16.20 20.25 24.30 28.35 32.40 36.45 40.50 44.55 48.60 52.65 56.70 60.75 64.80 68.85 72.90 76.95 81.00 85.05 89.10 93.15 97.20 101.25 105.30 109.35 113.40 117.45 121.50 125.55 129.60 133.65 137.70 141.75 145.80 149.85 153.90 157.95 162.00 166.05 170.10 174.15 178.20 182.25 186.30 190.35 194.40 198.45 202.50 206.55 210.60 214.65 218.70 222.75 226.80 230.85 234.90 238.95 243.00" y="111.04" font-size="6.7" font-weight="500" fill="#45515d" xml:space="preserve" clip-path="url(#r16)">                               rsrr33si;;;iiX3MGSG5Xsri::,isi</text><clipPath id="r17"><rect x="-1" y="111.18" width="386.75" height="7.6"><animate attributeName="width" values="0;0;386.75" keyTimes="0;0.4179;1" begin="0s" dur="0.77s" fill="freeze"/></rect></clipPath><text x="0.00 4.05 8.10 12.15 16.20 20.25 24.30 28.35 32.40 36.45 40.50 44.55 48.60 52.65 56.70 60.75 64.80 68.85 72.90 76.95 81.00 85.05 89.10 93.15 97.20 101.25 105.30 109.35 113.40 117.45 121.50 125.55 129.60 133.65 137.70 141.75 145.80 149.85 153.90 157.95 162.00 166.05 170.10 174.15 178.20 182.25 186.30 190.35 194.40 198.45 202.50 206.55 210.60 214.65 218.70 222.75 226.80 230.85" y="117.98" font-size="6.7" font-weight="500" fill="#45515d" xml:space="preserve" clip-path="url(#r17)">                                irs5332sr;;;;isA2522Asr;s,</text><clipPath id="r18"><rect x="-1" y="118.12" width="386.75" height="7.6"><animate attributeName="width" values="0;0;386.75" keyTimes="0;0.4318;1" begin="0s" dur="0.79s" fill="freeze"/></rect></clipPath><text x="0.00 4.05 8.10 12.15 16.20 20.25 24.30 28.35 32.40 36.45 40.50 44.55 48.60 52.65 56.70 60.75 64.80 68.85 72.90 76.95 81.00 85.05 89.10 93.15 97.20 101.25 105.30 109.35 113.40 117.45 121.50 125.55 129.60 133.65 137.70 141.75 145.80 149.85 153.90 157.95 162.00 166.05 170.10 174.15 178.20 182.25 186.30 190.35 194.40 198.45 202.50 206.55 210.60 214.65 218.70 222.75 226.80 230.85" y="124.92" font-size="6.7" font-weight="500" fill="#45515d" xml:space="preserve" clip-path="url(#r18)">                                 ;iA2525AXrirA5353hhh5;sA,</text><clipPath id="r19"><rect x="-1" y="125.06" width="386.75" height="7.6"><animate attributeName="width" values="0;0;386.75" keyTimes="0;0.4451;1" begin="0s" dur="0.81s" fill="freeze"/></rect></clipPath><text x="0.00 4.05 8.10 12.15 16.20 20.25 24.30 28.35 32.40 36.45 40.50 44.55 48.60 52.65 56.70 60.75 64.80 68.85 72.90 76.95 81.00 85.05 89.10 93.15 97.20 101.25 105.30 109.35 113.40 117.45 121.50 125.55 129.60 133.65 137.70 141.75 145.80 149.85 153.90 157.95 162.00 166.05 170.10 174.15 178.20 182.25 186.30 190.35 194.40 198.45 202.50 206.55 210.60 214.65 218.70 222.75 226.80" y="131.86" font-size="6.7" font-weight="500" fill="#45515d" xml:space="preserve" clip-path="url(#r19)">                                  ;s222522XXA3h525222Ai:s</text><clipPath id="r20"><rect x="-1" y="132.00" width="386.75" height="7.6"><animate attributeName="width" values="0;0;386.75" keyTimes="0;0.4578;1" begin="0s" dur="0.83s" fill="freeze"/></rect></clipPath><text x="0.00 4.05 8.10 12.15 16.20 20.25 24.30 28.35 32.40 36.45 40.50 44.55 48.60 52.65 56.70 60.75 64.80 68.85 72.90 76.95 81.00 85.05 89.10 93.15 97.20 101.25 105.30 109.35 113.40 117.45 121.50 125.55 129.60 133.65 137.70 141.75 145.80 149.85 153.90 157.95 162.00 166.05 170.10 174.15 178.20 182.25 186.30 190.35 194.40 198.45 202.50 206.55 210.60 214.65 218.70 222.75 226.80" y="138.80" font-size="6.7" font-weight="500" fill="#45515d" xml:space="preserve" clip-path="url(#r20)">                                  ;r2222332AA2AXXXXXsi,5X</text><clipPath id="r21"><rect x="-1" y="138.94" width="386.75" height="7.6"><animate attributeName="width" values="0;0;386.75" keyTimes="0;0.4700;1" begin="0s" dur="0.85s" fill="freeze"/></rect></clipPath><text x="0.00 4.05 8.10 12.15 16.20 20.25 24.30 28.35 32.40 36.45 40.50 44.55 48.60 52.65 56.70 60.75 64.80 68.85 72.90 76.95 81.00 85.05 89.10 93.15 97.20 101.25 105.30 109.35 113.40 117.45 121.50 125.55 129.60 133.65 137.70 141.75 145.80 149.85 153.90 157.95 162.00 166.05 170.10 174.15 178.20 182.25 186.30 190.35 194.40 198.45 202.50 206.55 210.60 214.65 218.70 222.75" y="145.74" font-size="6.7" font-weight="500" fill="#45515d" xml:space="preserve" clip-path="url(#r21)">                              5S9MiiXhhh335552AAA2333s.r</text><clipPath id="r22"><rect x="-1" y="145.88" width="386.75" height="7.6"><animate attributeName="width" values="0;0;386.75" keyTimes="0;0.4816;1" begin="0s" dur="0.87s" fill="freeze"/></rect></clipPath><text x="0.00 4.05 8.10 12.15 16.20 20.25 24.30 28.35 32.40 36.45 40.50 44.55 48.60 52.65 56.70 60.75 64.80 68.85 72.90 76.95 81.00 85.05 89.10 93.15 97.20 101.25 105.30 109.35 113.40 117.45 121.50 125.55 129.60 133.65 137.70 141.75 145.80 149.85 153.90 157.95 162.00 166.05 170.10 174.15 178.20 182.25 186.30 190.35 194.40 198.45 202.50 206.55 210.60 214.65 218.70 222.75" y="152.68" font-size="6.7" font-weight="500" fill="#45515d" xml:space="preserve" clip-path="url(#r22)">                             ;3G#Grir2Mhh353532AAA22Ai:,</text><clipPath id="r23"><rect x="-1" y="152.82" width="386.75" height="7.6"><animate attributeName="width" values="0;0;386.75" keyTimes="0;0.4927;1" begin="0s" dur="0.89s" fill="freeze"/></rect></clipPath><text x="0.00 4.05 8.10 12.15 16.20 20.25 24.30 28.35 32.40 36.45 40.50 44.55 48.60 52.65 56.70 60.75 64.80 68.85 72.90 76.95 81.00 85.05 89.10 93.15 97.20 101.25 105.30 109.35 113.40 117.45 121.50 125.55 129.60 133.65 137.70 141.75 145.80 149.85 153.90 157.95 162.00 166.05 170.10 174.15 178.20 182.25 186.30 190.35 194.40 198.45 202.50 206.55 210.60 214.65 218.70 222.75 226.80 230.85" y="159.62" font-size="6.7" font-weight="500" fill="#45515d" xml:space="preserve" clip-path="url(#r23)">                            :3hHS#AiiX5MMhhMMh355222A;..,.</text><clipPath id="r24"><rect x="-1" y="159.76" width="386.75" height="7.6"><animate attributeName="width" values="0;0;386.75" keyTimes="0;0.5033;1" begin="0s" dur="0.91s" fill="freeze"/></rect></clipPath><text x="0.00 4.05 8.10 12.15 16.20 20.25 24.30 28.35 32.40 36.45 40.50 44.55 48.60 52.65 56.70 60.75 64.80 68.85 72.90 76.95 81.00 85.05 89.10 93.15 97.20 101.25 105.30 109.35 113.40 117.45 121.50 125.55 129.60 133.65 137.70 141.75 145.80 149.85 153.90 157.95 162.00 166.05 170.10 174.15 178.20 182.25 186.30 190.35 194.40 198.45 202.50 206.55 210.60 214.65 218.70 222.75 226.80 230.85 234.90 238.95 243.00" y="166.56" font-size="6.7" font-weight="500" fill="#45515d" xml:space="preserve" clip-path="url(#r24)">                           r5hhMGSMXrrX533hMHHGHHHMh5i.,X,.:i</text><clipPath id="r25"><rect x="-1" y="166.70" width="386.75" height="7.6"><animate attributeName="width" values="0;0;386.75" keyTimes="0;0.5135;1" begin="0s" dur="0.93s" fill="freeze"/></rect></clipPath><text x="0.00 4.05 8.10 12.15 16.20 20.25 24.30 28.35 32.40 36.45 40.50 44.55 48.60 52.65 56.70 60.75 64.80 68.85 72.90 76.95 81.00 85.05 89.10 93.15 97.20 101.25 105.30 109.35 113.40 117.45 121.50 125.55 129.60 133.65 137.70 141.75 145.80 149.85 153.90 157.95 162.00 166.05 170.10 174.15 178.20 182.25 186.30 190.35 194.40 198.45 202.50 206.55 210.60 214.65 218.70 222.75 226.80 230.85 234.90 238.95 243.00 247.05 251.10" y="173.50" font-size="6.7" font-weight="500" fill="#45515d" xml:space="preserve" clip-path="url(#r25)">                          X3hhMGSGG3XsrsXA25hHS#9##G2;.i3s,.;sX</text><clipPath id="r26"><rect x="-1" y="173.64" width="386.75" height="7.6"><animate attributeName="width" values="0;0;386.75" keyTimes="0;0.5233;1" begin="0s" dur="0.94s" fill="freeze"/></rect></clipPath><text x="0.00 4.05 8.10 12.15 16.20 20.25 24.30 28.35 32.40 36.45 40.50 44.55 48.60 52.65 56.70 60.75 64.80 68.85 72.90 76.95 81.00 85.05 89.10 93.15 97.20 101.25 105.30 109.35 113.40 117.45 121.50 125.55 129.60 133.65 137.70 141.75 145.80 149.85 153.90 157.95 162.00 166.05 170.10 174.15 178.20 182.25 186.30 190.35 194.40 198.45 202.50 206.55 210.60 214.65 218.70 222.75 226.80 230.85 234.90 238.95 243.00 247.05 251.10 255.15 259.20" y="180.44" font-size="6.7" font-weight="500" fill="#45515d" xml:space="preserve" clip-path="url(#r26)">                         A5hhhMGHSSSM2ssssXXA5HGGGM3;:rMM3r,.:sXX</text><clipPath id="r27"><rect x="-1" y="180.58" width="386.75" height="7.6"><animate attributeName="width" values="0;0;386.75" keyTimes="0;0.5327;1" begin="0s" dur="0.96s" fill="freeze"/></rect></clipPath><text x="0.00 4.05 8.10 12.15 16.20 20.25 24.30 28.35 32.40 36.45 40.50 44.55 48.60 52.65 56.70 60.75 64.80 68.85 72.90 76.95 81.00 85.05 89.10 93.15 97.20 101.25 105.30 109.35 113.40 117.45 121.50 125.55 129.60 133.65 137.70 141.75 145.80 149.85 153.90 157.95 162.00 166.05 170.10 174.15 178.20 182.25 186.30 190.35 194.40 198.45 202.50 206.55 210.60 214.65 218.70 222.75 226.80 230.85 234.90 238.95 243.00 247.05 251.10 255.15 259.20 263.25 267.30 271.35" y="187.38" font-size="6.7" font-weight="500" fill="#45515d" xml:space="preserve" clip-path="url(#r27)">                        553H3MhHHHSGGGMAXXA23hhMhh5;iMGSMh5s,.,iXXs;</text><clipPath id="r28"><rect x="-1" y="187.52" width="386.75" height="7.6"><animate attributeName="width" values="0;0;386.75" keyTimes="0;0.5418;1" begin="0s" dur="0.98s" fill="freeze"/></rect></clipPath><text x="0.00 4.05 8.10 12.15 16.20 20.25 24.30 28.35 32.40 36.45 40.50 44.55 48.60 52.65 56.70 60.75 64.80 68.85 72.90 76.95 81.00 85.05 89.10 93.15 97.20 101.25 105.30 109.35 113.40 117.45 121.50 125.55 129.60 133.65 137.70 141.75 145.80 149.85 153.90 157.95 162.00 166.05 170.10 174.15 178.20 182.25 186.30 190.35 194.40 198.45 202.50 206.55 210.60 214.65 218.70 222.75 226.80 230.85 234.90 238.95 243.00 247.05 251.10 255.15 259.20 263.25 267.30 271.35 275.40 279.45 283.50 287.55" y="194.32" font-size="6.7" font-weight="500" fill="#45515d" xml:space="preserve" clip-path="url(#r28)">                      5533hSSMMHHH#SGSGG33hhh3M335r5SS#HMM32i,..,irXrAXs</text><clipPath id="r29"><rect x="-1" y="194.46" width="386.75" height="7.6"><animate attributeName="width" values="0;0;386.75" keyTimes="0;0.5504;1" begin="0s" dur="1.00s" fill="freeze"/></rect></clipPath><text x="0.00 4.05 8.10 12.15 16.20 20.25 24.30 28.35 32.40 36.45 40.50 44.55 48.60 52.65 56.70 60.75 64.80 68.85 72.90 76.95 81.00 85.05 89.10 93.15 97.20 101.25 105.30 109.35 113.40 117.45 121.50 125.55 129.60 133.65 137.70 141.75 145.80 149.85 153.90 157.95 162.00 166.05 170.10 174.15 178.20 182.25 186.30 190.35 194.40 198.45 202.50 206.55 210.60 214.65 218.70 222.75 226.80 230.85 234.90 238.95 243.00 247.05 251.10 255.15 259.20 263.25 267.30 271.35 275.40 279.45 283.50 287.55 291.60 295.65 299.70" y="201.26" font-size="6.7" font-weight="500" fill="#45515d" xml:space="preserve" clip-path="url(#r29)">                   5A253hMhG9SMMGHG###SSGGMh3hh5M3G#SHGMMM35A5h5225hh355225</text><clipPath id="r30"><rect x="-1" y="201.40" width="386.75" height="7.6"><animate attributeName="width" values="0;0;386.75" keyTimes="0;0.5588;1" begin="0s" dur="1.02s" fill="freeze"/></rect></clipPath><text x="0.00 4.05 8.10 12.15 16.20 20.25 24.30 28.35 32.40 36.45 40.50 44.55 48.60 52.65 56.70 60.75 64.80 68.85 72.90 76.95 81.00 85.05 89.10 93.15 97.20 101.25 105.30 109.35 113.40 117.45 121.50 125.55 129.60 133.65 137.70 141.75 145.80 149.85 153.90 157.95 162.00 166.05 170.10 174.15 178.20 182.25 186.30 190.35 194.40 198.45 202.50 206.55 210.60 214.65 218.70 222.75 226.80 230.85 234.90 238.95 243.00 247.05 251.10 255.15 259.20 263.25 267.30 271.35 275.40 279.45 283.50 287.55 291.60 295.65 299.70 303.75 307.80" y="208.20" font-size="6.7" font-weight="500" fill="#45515d" xml:space="preserve" clip-path="url(#r30)">                  s5G33MHMhMS9SHHSGHGS####Hh3H5MM#9GGSMhMh353#GM33hhh3555AhA,</text><clipPath id="r31"><rect x="-1" y="208.34" width="386.75" height="7.6"><animate attributeName="width" values="0;0;386.75" keyTimes="0;0.5669;1" begin="0s" dur="1.04s" fill="freeze"/></rect></clipPath><text x="0.00 4.05 8.10 12.15 16.20 20.25 24.30 28.35 32.40 36.45 40.50 44.55 48.60 52.65 56.70 60.75 64.80 68.85 72.90 76.95 81.00 85.05 89.10 93.15 97.20 101.25 105.30 109.35 113.40 117.45 121.50 125.55 129.60 133.65 137.70 141.75 145.80 149.85 153.90 157.95 162.00 166.05 170.10 174.15 178.20 182.25 186.30 190.35 194.40 198.45 202.50 206.55 210.60 214.65 218.70 222.75 226.80 230.85 234.90 238.95 243.00 247.05 251.10 255.15 259.20 263.25 267.30 271.35 275.40 279.45 283.50 287.55 291.60 295.65 299.70 303.75 307.80 311.85" y="215.14" font-size="6.7" font-weight="500" fill="#45515d" xml:space="preserve" clip-path="url(#r31)">               A222AS33MHhhMHG5MGGGHHGG9S#M3h3hS#SSH#HMhMhh2HGh523hhh33332hhs,</text><clipPath id="r32"><rect x="-1" y="215.28" width="386.75" height="7.6"><animate attributeName="width" values="0;0;386.75" keyTimes="0;0.5747;1" begin="0s" dur="1.06s" fill="freeze"/></rect></clipPath><text x="0.00 4.05 8.10 12.15 16.20 20.25 24.30 28.35 32.40 36.45 40.50 44.55 48.60 52.65 56.70 60.75 64.80 68.85 72.90 76.95 81.00 85.05 89.10 93.15 97.20 101.25 105.30 109.35 113.40 117.45 121.50 125.55 129.60 133.65 137.70 141.75 145.80 149.85 153.90 157.95 162.00 166.05 170.10 174.15 178.20 182.25 186.30 190.35 194.40 198.45 202.50 206.55 210.60 214.65 218.70 222.75 226.80 230.85 234.90 238.95 243.00 247.05 251.10 255.15 259.20 263.25 267.30 271.35 275.40 279.45 283.50 287.55 291.60 295.65 299.70 303.75 307.80 311.85 315.90" y="222.08" font-size="6.7" font-weight="500" fill="#45515d" xml:space="preserve" clip-path="url(#r32)">             25553hMG3hMMhhhMMs5MMGGSSS#GHh3hG#B999GX5hhMhh2H32A53hhh33335h32s.</text><clipPath id="r33"><rect x="-1" y="222.22" width="386.75" height="7.6"><animate attributeName="width" values="0;0;386.75" keyTimes="0;0.5822;1" begin="0s" dur="1.08s" fill="freeze"/></rect></clipPath><text x="0.00 4.05 8.10 12.15 16.20 20.25 24.30 28.35 32.40 36.45 40.50 44.55 48.60 52.65 56.70 60.75 64.80 68.85 72.90 76.95 81.00 85.05 89.10 93.15 97.20 101.25 105.30 109.35 113.40 117.45 121.50 125.55 129.60 133.65 137.70 141.75 145.80 149.85 153.90 157.95 162.00 166.05 170.10 174.15 178.20 182.25 186.30 190.35 194.40 198.45 202.50 206.55 210.60 214.65 218.70 222.75 226.80 230.85 234.90 238.95 243.00 247.05 251.10 255.15 259.20 263.25 267.30 271.35 275.40 279.45 283.50 287.55 291.60 295.65 299.70 303.75 307.80 311.85 315.90" y="229.02" font-size="6.7" font-weight="500" fill="#45515d" xml:space="preserve" clip-path="url(#r33)">           25255333333hMMh3hMMs3SSGSGGHGS35S##BB9SMri5hhhM32352A5hh33333335255;</text><clipPath id="r34"><rect x="-1" y="229.16" width="386.75" height="7.6"><animate attributeName="width" values="0;0;386.75" keyTimes="0;0.5894;1" begin="0s" dur="1.10s" fill="freeze"/></rect></clipPath><text x="0.00 4.05 8.10 12.15 16.20 20.25 24.30 28.35 32.40 36.45 40.50 44.55 48.60 52.65 56.70 60.75 64.80 68.85 72.90 76.95 81.00 85.05 89.10 93.15 97.20 101.25 105.30 109.35 113.40 117.45 121.50 125.55 129.60 133.65 137.70 141.75 145.80 149.85 153.90 157.95 162.00 166.05 170.10 174.15 178.20 182.25 186.30 190.35 194.40 198.45 202.50 206.55 210.60 214.65 218.70 222.75 226.80 230.85 234.90 238.95 243.00 247.05 251.10 255.15 259.20 263.25 267.30 271.35 275.40 279.45 283.50 287.55 291.60 295.65 299.70 303.75 307.80 311.85 315.90 319.95" y="235.96" font-size="6.7" font-weight="500" fill="#45515d" xml:space="preserve" clip-path="url(#r34)">          55533533h35hhMM333hHXr3S#Gh#GGM5##SMSSSMi:;3hhhM3252253h3333333352hhi2</text><clipPath id="r35"><rect x="-1" y="236.10" width="386.75" height="7.6"><animate attributeName="width" values="0;0;386.75" keyTimes="0;0.5964;1" begin="0s" dur="1.11s" fill="freeze"/></rect></clipPath><text x="0.00 4.05 8.10 12.15 16.20 20.25 24.30 28.35 32.40 36.45 40.50 44.55 48.60 52.65 56.70 60.75 64.80 68.85 72.90 76.95 81.00 85.05 89.10 93.15 97.20 101.25 105.30 109.35 113.40 117.45 121.50 125.55 129.60 133.65 137.70 141.75 145.80 149.85 153.90 157.95 162.00 166.05 170.10 174.15 178.20 182.25 186.30 190.35 194.40 198.45 202.50 206.55 210.60 214.65 218.70 222.75 226.80 230.85 234.90 238.95 243.00 247.05 251.10 255.15 259.20 263.25 267.30 271.35 275.40 279.45 283.50 287.55 291.60 295.65 299.70 303.75 307.80 311.85 315.90 319.95" y="242.90" font-size="6.7" font-weight="500" fill="#45515d" xml:space="preserve" clip-path="url(#r35)">         2232h3533h33hhMM333hHXi;2MGSSGM3HMGGGH9M;,,ihhhhh52555533553h335552H3iX</text><clipPath id="r36"><rect x="-1" y="243.04" width="386.75" height="7.6"><animate attributeName="width" values="0;0;386.75" keyTimes="0;0.6032;1" begin="0s" dur="1.13s" fill="freeze"/></rect></clipPath><text x="0.00 4.05 8.10 12.15 16.20 20.25 24.30 28.35 32.40 36.45 40.50 44.55 48.60 52.65 56.70 60.75 64.80 68.85 72.90 76.95 81.00 85.05 89.10 93.15 97.20 101.25 105.30 109.35 113.40 117.45 121.50 125.55 129.60 133.65 137.70 141.75 145.80 149.85 153.90 157.95 162.00 166.05 170.10 174.15 178.20 182.25 186.30 190.35 194.40 198.45 202.50 206.55 210.60 214.65 218.70 222.75 226.80 230.85 234.90 238.95 243.00 247.05 251.10 255.15 259.20 263.25 267.30 271.35 275.40 279.45 283.50 287.55 291.60 295.65 299.70 303.75 307.80 311.85 315.90 319.95 324.00" y="249.84" font-size="6.7" font-weight="500" fill="#45515d" xml:space="preserve" clip-path="url(#r36)">        555h5333353h33hMM3333MAi::i3#SM5Sh3M#SGGr,,,Xhhhhh32355552553333522A35iX3</text><clipPath id="r37"><rect x="-1" y="249.98" width="386.75" height="7.6"><animate attributeName="width" values="0;0;386.75" keyTimes="0;0.6097;1" begin="0s" dur="1.15s" fill="freeze"/></rect></clipPath><text x="0.00 4.05 8.10 12.15 16.20 20.25 24.30 28.35 32.40 36.45 40.50 44.55 48.60 52.65 56.70 60.75 64.80 68.85 72.90 76.95 81.00 85.05 89.10 93.15 97.20 101.25 105.30 109.35 113.40 117.45 121.50 125.55 129.60 133.65 137.70 141.75 145.80 149.85 153.90 157.95 162.00 166.05 170.10 174.15 178.20 182.25 186.30 190.35 194.40 198.45 202.50 206.55 210.60 214.65 218.70 222.75 226.80 230.85 234.90 238.95 243.00 247.05 251.10 255.15 259.20 263.25 267.30 271.35 275.40 279.45 283.50 287.55 291.60 295.65 299.70 303.75 307.80 311.85 315.90 319.95 324.00 328.05" y="256.78" font-size="6.7" font-weight="500" fill="#45515d" xml:space="preserve" clip-path="url(#r37)">        h253h53h355h55hhh3353h2i:,,:;2MHS3GSGhhHGi,:Ahh3333252555225255352AXXXsXh3</text><clipPath id="r38"><rect x="-1" y="256.92" width="386.75" height="7.6"><animate attributeName="width" values="0;0;386.75" keyTimes="0;0.6160;1" begin="0s" dur="1.17s" fill="freeze"/></rect></clipPath><text x="0.00 4.05 8.10 12.15 16.20 20.25 24.30 28.35 32.40 36.45 40.50 44.55 48.60 52.65 56.70 60.75 64.80 68.85 72.90 76.95 81.00 85.05 89.10 93.15 97.20 101.25 105.30 109.35 113.40 117.45 121.50 125.55 129.60 133.65 137.70 141.75 145.80 149.85 153.90 157.95 162.00 166.05 170.10 174.15 178.20 182.25 186.30 190.35 194.40 198.45 202.50 206.55 210.60 214.65 218.70 222.75 226.80 230.85 234.90 238.95 243.00 247.05 251.10 255.15 259.20 263.25 267.30 271.35 275.40 279.45 283.50 287.55 291.60 295.65 299.70 303.75 307.80 311.85 315.90 319.95 324.00 328.05" y="263.72" font-size="6.7" font-weight="500" fill="#45515d" xml:space="preserve" clip-path="url(#r38)">        M2333533332535hhh555532i:,,,,:2SHHGMHSSG#H::5hhh335255555255233552AAs:s5h5</text><clipPath id="r39"><rect x="-1" y="263.86" width="386.75" height="7.6"><animate attributeName="width" values="0;0;386.75" keyTimes="0;0.6222;1" begin="0s" dur="1.19s" fill="freeze"/></rect></clipPath><text x="0.00 4.05 8.10 12.15 16.20 20.25 24.30 28.35 32.40 36.45 40.50 44.55 48.60 52.65 56.70 60.75 64.80 68.85 72.90 76.95 81.00 85.05 89.10 93.15 97.20 101.25 105.30 109.35 113.40 117.45 121.50 125.55 129.60 133.65 137.70 141.75 145.80 149.85 153.90 157.95 162.00 166.05 170.10 174.15 178.20 182.25 186.30 190.35 194.40 198.45 202.50 206.55 210.60 214.65 218.70 222.75 226.80 230.85 234.90 238.95 243.00 247.05 251.10 255.15 259.20 263.25 267.30 271.35 275.40 279.45 283.50 287.55 291.60 295.65 299.70 303.75 307.80 311.85 315.90 319.95 324.00 328.05 332.10" y="270.66" font-size="6.7" font-weight="500" fill="#45515d" xml:space="preserve" clip-path="url(#r39)">       2H35M3253332253hh3552533r;:,,,,5MMHHSHGHHM9h;3hhh3352352522252222222AX;XMh5;</text><clipPath id="r40"><rect x="-1" y="270.80" width="386.75" height="7.6"><animate attributeName="width" values="0;0;386.75" keyTimes="0;0.6281;1" begin="0s" dur="1.21s" fill="freeze"/></rect></clipPath><text x="0.00 4.05 8.10 12.15 16.20 20.25 24.30 28.35 32.40 36.45 40.50 44.55 48.60 52.65 56.70 60.75 64.80 68.85 72.90 76.95 81.00 85.05 89.10 93.15 97.20 101.25 105.30 109.35 113.40 117.45 121.50 125.55 129.60 133.65 137.70 141.75 145.80 149.85 153.90 157.95 162.00 166.05 170.10 174.15 178.20 182.25 186.30 190.35 194.40 198.45 202.50 206.55 210.60 214.65 218.70 222.75 226.80 230.85 234.90 238.95 243.00 247.05 251.10 255.15 259.20 263.25 267.30 271.35 275.40 279.45 283.50 287.55 291.60 295.65 299.70 303.75 307.80 311.85 315.90 319.95 324.00 328.05 332.10" y="277.60" font-size="6.7" font-weight="500" fill="#45515d" xml:space="preserve" clip-path="url(#r40)">       2Hh2hM5233552253332522532;:,,,:HSSGGMGS99GHM2MMhhh352352222222222222AAXXM35s</text><clipPath id="r41"><rect x="-1" y="277.74" width="386.75" height="7.6"><animate attributeName="width" values="0;0;386.75" keyTimes="0;0.6338;1" begin="0s" dur="1.23s" fill="freeze"/></rect></clipPath><text x="0.00 4.05 8.10 12.15 16.20 20.25 24.30 28.35 32.40 36.45 40.50 44.55 48.60 52.65 56.70 60.75 64.80 68.85 72.90 76.95 81.00 85.05 89.10 93.15 97.20 101.25 105.30 109.35 113.40 117.45 121.50 125.55 129.60 133.65 137.70 141.75 145.80 149.85 153.90 157.95 162.00 166.05 170.10 174.15 178.20 182.25 186.30 190.35 194.40 198.45 202.50 206.55 210.60 214.65 218.70 222.75 226.80 230.85 234.90 238.95 243.00 247.05 251.10 255.15 259.20 263.25 267.30 271.35 275.40 279.45 283.50 287.55 291.60 295.65 299.70 303.75 307.80 311.85 315.90 319.95 324.00 328.05 332.10 336.15" y="284.54" font-size="6.7" font-weight="500" fill="#45515d" xml:space="preserve" clip-path="url(#r41)">       AMM25HM233522A5335222253hs;,,,;S#SSHGMS#9#hMhHMhh33223555222222222222AXMh32AX</text><clipPath id="r42"><rect x="-1" y="284.68" width="386.75" height="7.6"><animate attributeName="width" values="0;0;386.75" keyTimes="0;0.6394;1" begin="0s" dur="1.25s" fill="freeze"/></rect></clipPath><text x="0.00 4.05 8.10 12.15 16.20 20.25 24.30 28.35 32.40 36.45 40.50 44.55 48.60 52.65 56.70 60.75 64.80 68.85 72.90 76.95 81.00 85.05 89.10 93.15 97.20 101.25 105.30 109.35 113.40 117.45 121.50 125.55 129.60 133.65 137.70 141.75 145.80 149.85 153.90 157.95 162.00 166.05 170.10 174.15 178.20 182.25 186.30 190.35 194.40 198.45 202.50 206.55 210.60 214.65 218.70 222.75 226.80 230.85 234.90 238.95 243.00 247.05 251.10 255.15 259.20 263.25 267.30 271.35 275.40 279.45 283.50 287.55 291.60 295.65 299.70 303.75 307.80 311.85 315.90 319.95 324.00 328.05 332.10 336.15" y="291.48" font-size="6.7" font-weight="500" fill="#45515d" xml:space="preserve" clip-path="url(#r42)">      rAhH3X3G323322X5355A2225532i:,,X99S9#GGMGS#MHMhHMh3352MMhhhhhh3335332XAHh352A5</text><clipPath id="r43"><rect x="-1" y="291.62" width="386.75" height="7.6"><animate attributeName="width" values="0;0;386.75" keyTimes="0;0.6448;1" begin="0s" dur="1.27s" fill="freeze"/></rect></clipPath><text x="0.00 4.05 8.10 12.15 16.20 20.25 24.30 28.35 32.40 36.45 40.50 44.55 48.60 52.65 56.70 60.75 64.80 68.85 72.90 76.95 81.00 85.05 89.10 93.15 97.20 101.25 105.30 109.35 113.40 117.45 121.50 125.55 129.60 133.65 137.70 141.75 145.80 149.85 153.90 157.95 162.00 166.05 170.10 174.15 178.20 182.25 186.30 190.35 194.40 198.45 202.50 206.55 210.60 214.65 218.70 222.75 226.80 230.85 234.90 238.95 243.00 247.05 251.10 255.15 259.20 263.25 267.30 271.35 275.40 279.45 283.50 287.55 291.60 295.65 299.70 303.75 307.80 311.85 315.90 319.95 324.00 328.05 332.10 336.15 340.20" y="298.42" font-size="6.7" font-weight="500" fill="#45515d" xml:space="preserve" clip-path="url(#r43)">      sX3Gh2AMSA5352A5355A2222532i;::A#9#9#SHhGH#hMMhMMh3322h3335552222255AsHh535A23X</text><clipPath id="r44"><rect x="-1" y="298.56" width="386.75" height="7.6"><animate attributeName="width" values="0;0;386.75" keyTimes="0;0.6501;1" begin="0s" dur="1.29s" fill="freeze"/></rect></clipPath><text x="0.00 4.05 8.10 12.15 16.20 20.25 24.30 28.35 32.40 36.45 40.50 44.55 48.60 52.65 56.70 60.75 64.80 68.85 72.90 76.95 81.00 85.05 89.10 93.15 97.20 101.25 105.30 109.35 113.40 117.45 121.50 125.55 129.60 133.65 137.70 141.75 145.80 149.85 153.90 157.95 162.00 166.05 170.10 174.15 178.20 182.25 186.30 190.35 194.40 198.45 202.50 206.55 210.60 214.65 218.70 222.75 226.80 230.85 234.90 238.95 243.00 247.05 251.10 255.15 259.20 263.25 267.30 271.35 275.40 279.45 283.50 287.55 291.60 295.65 299.70 303.75 307.80 311.85 315.90 319.95 324.00 328.05 332.10 336.15 340.20" y="305.36" font-size="6.7" font-weight="500" fill="#45515d" xml:space="preserve" clip-path="url(#r44)">     rsA5HH5A5M3A535A5352A2252552r;::2S99SSHHhHGHh5HM3MM335233555222222255A2h5555A53s</text><clipPath id="r45"><rect x="-1" y="305.50" width="386.75" height="7.6"><animate attributeName="width" values="0;0;386.75" keyTimes="0;0.6552;1" begin="0s" dur="1.30s" fill="freeze"/></rect></clipPath><text x="0.00 4.05 8.10 12.15 16.20 20.25 24.30 28.35 32.40 36.45 40.50 44.55 48.60 52.65 56.70 60.75 64.80 68.85 72.90 76.95 81.00 85.05 89.10 93.15 97.20 101.25 105.30 109.35 113.40 117.45 121.50 125.55 129.60 133.65 137.70 141.75 145.80 149.85 153.90 157.95 162.00 166.05 170.10 174.15 178.20 182.25 186.30 190.35 194.40 198.45 202.50 206.55 210.60 214.65 218.70 222.75 226.80 230.85 234.90 238.95 243.00 247.05 251.10 255.15 259.20 263.25 267.30 271.35 275.40 279.45 283.50 287.55 291.60 295.65 299.70 303.75 307.80 311.85 315.90 319.95 324.00 328.05 332.10 336.15 340.20 344.25" y="312.30" font-size="6.7" font-weight="500" fill="#45515d" xml:space="preserve" clip-path="url(#r45)">     sXA2hGh2A5HX255A5352A2555555r;;;AG999HHMh3HMM599#SHh35255555222255222AA23332AhhX:</text><clipPath id="r46"><rect x="-1" y="312.44" width="386.75" height="7.6"><animate attributeName="width" values="0;0;386.75" keyTimes="0;0.6601;1" begin="0s" dur="1.32s" fill="freeze"/></rect></clipPath><text x="0.00 4.05 8.10 12.15 16.20 20.25 24.30 28.35 32.40 36.45 40.50 44.55 48.60 52.65 56.70 60.75 64.80 68.85 72.90 76.95 81.00 85.05 89.10 93.15 97.20 101.25 105.30 109.35 113.40 117.45 121.50 125.55 129.60 133.65 137.70 141.75 145.80 149.85 153.90 157.95 162.00 166.05 170.10 174.15 178.20 182.25 186.30 190.35 194.40 198.45 202.50 206.55 210.60 214.65 218.70 222.75 226.80 230.85 234.90 238.95 243.00 247.05 251.10 255.15 259.20 263.25 267.30 271.35 275.40 279.45 283.50 287.55 291.60 295.65 299.70 303.75 307.80 311.85 315.90 319.95 324.00 328.05 332.10 336.15 340.20 344.25" y="319.24" font-size="6.7" font-weight="500" fill="#45515d" xml:space="preserve" clip-path="url(#r46)">     sXA25HH32235X25A232AA2555525si;;AM999ShMMhMhMhS99#Gh35255555522255522XX3Mh5A3MhX;</text><clipPath id="r47"><rect x="-1" y="319.38" width="386.75" height="7.6"><animate attributeName="width" values="0;0;386.75" keyTimes="0;0.6649;1" begin="0s" dur="1.34s" fill="freeze"/></rect></clipPath><text x="0.00 4.05 8.10 12.15 16.20 20.25 24.30 28.35 32.40 36.45 40.50 44.55 48.60 52.65 56.70 60.75 64.80 68.85 72.90 76.95 81.00 85.05 89.10 93.15 97.20 101.25 105.30 109.35 113.40 117.45 121.50 125.55 129.60 133.65 137.70 141.75 145.80 149.85 153.90 157.95 162.00 166.05 170.10 174.15 178.20 182.25 186.30 190.35 194.40 198.45 202.50 206.55 210.60 214.65 218.70 222.75 226.80 230.85 234.90 238.95 243.00 247.05 251.10 255.15 259.20 263.25 267.30 271.35 275.40 279.45 283.50 287.55 291.60 295.65 299.70 303.75 307.80 311.85 315.90 319.95 324.00 328.05 332.10 336.15 340.20 344.25 348.30" y="326.18" font-size="6.7" font-weight="500" fill="#45515d" xml:space="preserve" clip-path="url(#r47)">     As2553GM3223AA2A252AA2555525si;;AhS999HMHhMHMhG#B99M3322555555555552AXAHM325hMhX:A</text><clipPath id="r48"><rect x="-1" y="326.32" width="386.75" height="7.6"><animate attributeName="width" values="0;0;386.75" keyTimes="0;0.6696;1" begin="0s" dur="1.36s" fill="freeze"/></rect></clipPath><text x="0.00 4.05 8.10 12.15 16.20 20.25 24.30 28.35 32.40 36.45 40.50 44.55 48.60 52.65 56.70 60.75 64.80 68.85 72.90 76.95 81.00 85.05 89.10 93.15 97.20 101.25 105.30 109.35 113.40 117.45 121.50 125.55 129.60 133.65 137.70 141.75 145.80 149.85 153.90 157.95 162.00 166.05 170.10 174.15 178.20 182.25 186.30 190.35 194.40 198.45 202.50 206.55 210.60 214.65 218.70 222.75 226.80 230.85 234.90 238.95 243.00 247.05 251.10 255.15 259.20 263.25 267.30 271.35 275.40 279.45 283.50 287.55 291.60 295.65 299.70 303.75 307.80 311.85 315.90 319.95 324.00 328.05 332.10 336.15 340.20 344.25 348.30" y="333.12" font-size="6.7" font-weight="500" fill="#45515d" xml:space="preserve" clip-path="url(#r48)">    XAX2555MGh3553X2A252225555525sr;;XhM99B#MGGMG##GG9&amp;BH35A2522255555522AX2M325hMMhX:s</text><clipPath id="r49"><rect x="-1" y="333.26" width="386.75" height="7.6"><animate attributeName="width" values="0;0;386.75" keyTimes="0;0.6741;1" begin="0s" dur="1.38s" fill="freeze"/></rect></clipPath><text x="0.00 4.05 8.10 12.15 16.20 20.25 24.30 28.35 32.40 36.45 40.50 44.55 48.60 52.65 56.70 60.75 64.80 68.85 72.90 76.95 81.00 85.05 89.10 93.15 97.20 101.25 105.30 109.35 113.40 117.45 121.50 125.55 129.60 133.65 137.70 141.75 145.80 149.85 153.90 157.95 162.00 166.05 170.10 174.15 178.20 182.25 186.30 190.35 194.40 198.45 202.50 206.55 210.60 214.65 218.70 222.75 226.80 230.85 234.90 238.95 243.00 247.05 251.10 255.15 259.20 263.25 267.30 271.35 275.40 279.45 283.50 287.55 291.60 295.65 299.70 303.75 307.80 311.85 315.90 319.95 324.00 328.05 332.10 336.15 340.20 344.25 348.30 352.35" y="340.06" font-size="6.7" font-weight="500" fill="#45515d" xml:space="preserve" clip-path="url(#r49)">    XAXA5353GHh3532AA222AA2555525Xr;;shMG999SHG#99#G##BSMh5A2322222225222XsAh53MMMh3A;Ar</text><clipPath id="r50"><rect x="-1" y="340.20" width="386.75" height="7.6"><animate attributeName="width" values="0;0;386.75" keyTimes="0;0.6786;1" begin="0s" dur="1.40s" fill="freeze"/></rect></clipPath><text x="0.00 4.05 8.10 12.15 16.20 20.25 24.30 28.35 32.40 36.45 40.50 44.55 48.60 52.65 56.70 60.75 64.80 68.85 72.90 76.95 81.00 85.05 89.10 93.15 97.20 101.25 105.30 109.35 113.40 117.45 121.50 125.55 129.60 133.65 137.70 141.75 145.80 149.85 153.90 157.95 162.00 166.05 170.10 174.15 178.20 182.25 186.30 190.35 194.40 198.45 202.50 206.55 210.60 214.65 218.70 222.75 226.80 230.85 234.90 238.95 243.00 247.05 251.10 255.15 259.20 263.25 267.30 271.35 275.40 279.45 283.50 287.55 291.60 295.65 299.70 303.75 307.80 311.85 315.90 319.95 324.00 328.05 332.10 336.15 340.20 344.25 348.30 352.35 356.40" y="347.00" font-size="6.7" font-weight="500" fill="#45515d" xml:space="preserve" clip-path="url(#r50)">    AAXA5333MSHh33hA2A22222555555Xri;shMM#BB9#999#H5G#9SMM52A352AAA2AAAAAAXX3MMM333h322AA</text><clipPath id="r51"><rect x="-1" y="347.14" width="386.75" height="7.6"><animate attributeName="width" values="0;0;386.75" keyTimes="0;0.6829;1" begin="0s" dur="1.42s" fill="freeze"/></rect></clipPath><text x="0.00 4.05 8.10 12.15 16.20 20.25 24.30 28.35 32.40 36.45 40.50 44.55 48.60 52.65 56.70 60.75 64.80 68.85 72.90 76.95 81.00 85.05 89.10 93.15 97.20 101.25 105.30 109.35 113.40 117.45 121.50 125.55 129.60 133.65 137.70 141.75 145.80 149.85 153.90 157.95 162.00 166.05 170.10 174.15 178.20 182.25 186.30 190.35 194.40 198.45 202.50 206.55 210.60 214.65 218.70 222.75 226.80 230.85 234.90 238.95 243.00 247.05 251.10 255.15 259.20 263.25 267.30 271.35 275.40 279.45 283.50 287.55 291.60 295.65 299.70 303.75 307.80 311.85 315.90 319.95 324.00 328.05 332.10 336.15 340.20 344.25 348.30 352.35 356.40 360.45" y="353.94" font-size="6.7" font-weight="500" fill="#45515d" xml:space="preserve" clip-path="url(#r51)">    22AA23hhMHSMMhMhAX52222553355Ari;sMMMH99999SHhh5MB#SHh32A2AAAAAAAAAAA2AAMM3555MM522AA2</text><clipPath id="r52"><rect x="-1" y="354.08" width="386.75" height="7.6"><animate attributeName="width" values="0;0;386.75" keyTimes="0;0.6871;1" begin="0s" dur="1.44s" fill="freeze"/></rect></clipPath><text x="0.00 4.05 8.10 12.15 16.20 20.25 24.30 28.35 32.40 36.45 40.50 44.55 48.60 52.65 56.70 60.75 64.80 68.85 72.90 76.95 81.00 85.05 89.10 93.15 97.20 101.25 105.30 109.35 113.40 117.45 121.50 125.55 129.60 133.65 137.70 141.75 145.80 149.85 153.90 157.95 162.00 166.05 170.10 174.15 178.20 182.25 186.30 190.35 194.40 198.45 202.50 206.55 210.60 214.65 218.70 222.75 226.80 230.85 234.90 238.95 243.00 247.05 251.10 255.15 259.20 263.25 267.30 271.35 275.40 279.45 283.50 287.55 291.60 295.65 299.70 303.75 307.80 311.85 315.90 319.95 324.00 328.05 332.10 336.15 340.20 344.25 348.30 352.35 356.40 360.45 364.50" y="360.88" font-size="6.7" font-weight="500" fill="#45515d" xml:space="preserve" clip-path="url(#r52)">   s55AA23hMMHSSHMMG2AAA222553333Asi;2MMMMG99SHMMhh35B9#HM32A555555555535552hh333MM522A253h</text><clipPath id="r53"><rect x="-1" y="361.02" width="386.75" height="7.6"><animate attributeName="width" values="0;0;386.75" keyTimes="0;0.6911;1" begin="0s" dur="1.46s" fill="freeze"/></rect></clipPath><text x="0.00 4.05 8.10 12.15 16.20 20.25 24.30 28.35 32.40 36.45 40.50 44.55 48.60 52.65 56.70 60.75 64.80 68.85 72.90 76.95 81.00 85.05 89.10 93.15 97.20 101.25 105.30 109.35 113.40 117.45 121.50 125.55 129.60 133.65 137.70 141.75 145.80 149.85 153.90 157.95 162.00 166.05 170.10 174.15 178.20 182.25 186.30 190.35 194.40 198.45 202.50 206.55 210.60 214.65 218.70 222.75 226.80 230.85 234.90 238.95 243.00 247.05 251.10 255.15 259.20 263.25 267.30 271.35 275.40 279.45 283.50 287.55 291.60 295.65 299.70 303.75 307.80 311.85 315.90 319.95 324.00 328.05 332.10 336.15 340.20 344.25 348.30 352.35 356.40 360.45 364.50" y="367.82" font-size="6.7" font-weight="500" fill="#45515d" xml:space="preserve" clip-path="url(#r53)">   s232AA5hMMMHSSHHGGAX22225553332XriMGhMMMHMMMMMMh3ASB9GHh2A555355333335533MHMMMh52253hh35</text><clipPath id="r54"><rect x="-1" y="367.96" width="386.75" height="7.6"><animate attributeName="width" values="0;0;386.75" keyTimes="0;0.6951;1" begin="0s" dur="1.48s" fill="freeze"/></rect></clipPath><text x="0.00 4.05 8.10 12.15 16.20 20.25 24.30 28.35 32.40 36.45 40.50 44.55 48.60 52.65 56.70 60.75 64.80 68.85 72.90 76.95 81.00 85.05 89.10 93.15 97.20 101.25 105.30 109.35 113.40 117.45 121.50 125.55 129.60 133.65 137.70 141.75 145.80 149.85 153.90 157.95 162.00 166.05 170.10 174.15 178.20 182.25 186.30 190.35 194.40 198.45 202.50 206.55 210.60 214.65 218.70 222.75 226.80 230.85 234.90 238.95 243.00 247.05 251.10 255.15 259.20 263.25 267.30 271.35 275.40 279.45 283.50 287.55 291.60 295.65 299.70 303.75 307.80 311.85 315.90 319.95 324.00 328.05 332.10 336.15 340.20 344.25 348.30 352.35 356.40 360.45 364.50" y="374.76" font-size="6.7" font-weight="500" fill="#45515d" xml:space="preserve" clip-path="url(#r54)">   AX532A5hGHMMH#SHG#3X22225533332Xrr#BhhMMMMMMMMMMh2h@&amp;9GM22552h35333335552GSSMh553MMhMh5r</text><clipPath id="r55"><rect x="-1" y="374.90" width="386.75" height="7.6"><animate attributeName="width" values="0;0;386.75" keyTimes="0;0.6990;1" begin="0s" dur="1.49s" fill="freeze"/></rect></clipPath><text x="0.00 4.05 8.10 12.15 16.20 20.25 24.30 28.35 32.40 36.45 40.50 44.55 48.60 52.65 56.70 60.75 64.80 68.85 72.90 76.95 81.00 85.05 89.10 93.15 97.20 101.25 105.30 109.35 113.40 117.45 121.50 125.55 129.60 133.65 137.70 141.75 145.80 149.85 153.90 157.95 162.00 166.05 170.10 174.15 178.20 182.25 186.30 190.35 194.40 198.45 202.50 206.55 210.60 214.65 218.70 222.75 226.80 230.85 234.90 238.95 243.00 247.05 251.10 255.15 259.20 263.25 267.30 271.35 275.40 279.45 283.50 287.55 291.60 295.65 299.70 303.75 307.80 311.85 315.90 319.95 324.00 328.05 332.10 336.15 340.20 344.25 348.30 352.35 356.40 360.45 364.50" y="381.70" font-size="6.7" font-weight="500" fill="#45515d" xml:space="preserve" clip-path="url(#r55)">   2A55525hGGHMMG#SGBhA22225533335As2B&amp;GhMMMMMMMMMMh53B&amp;9Gh525223h553335555A#SHhh3hhhhMh5X,</text><clipPath id="r56"><rect x="-1" y="381.84" width="386.75" height="7.6"><animate attributeName="width" values="0;0;386.75" keyTimes="0;0.7028;1" begin="0s" dur="1.51s" fill="freeze"/></rect></clipPath><text x="0.00 4.05 8.10 12.15 16.20 20.25 24.30 28.35 32.40 36.45 40.50 44.55 48.60 52.65 56.70 60.75 64.80 68.85 72.90 76.95 81.00 85.05 89.10 93.15 97.20 101.25 105.30 109.35 113.40 117.45 121.50 125.55 129.60 133.65 137.70 141.75 145.80 149.85 153.90 157.95 162.00 166.05 170.10 174.15 178.20 182.25 186.30 190.35 194.40 198.45 202.50 206.55 210.60 214.65 218.70 222.75 226.80 230.85 234.90 238.95 243.00 247.05 251.10 255.15 259.20 263.25 267.30 271.35 275.40 279.45 283.50 287.55 291.60 295.65 299.70 303.75 307.80 311.85 315.90 319.95 324.00 328.05 332.10 336.15 340.20 344.25 348.30 352.35 356.40 360.45 364.50 368.55" y="388.64" font-size="6.7" font-weight="500" fill="#45515d" xml:space="preserve" clip-path="url(#r56)">  222525525HS#SGGS9#BMAA2225533h35AXHB#GhhMMMMMMMMhHSSGSGGM5525A3h333335555A#GHhhh3hhM3225A,</text><clipPath id="r57"><rect x="-1" y="388.78" width="386.75" height="7.6"><animate attributeName="width" values="0;0;386.75" keyTimes="0;0.7065;1" begin="0s" dur="1.53s" fill="freeze"/></rect></clipPath><text x="0.00 4.05 8.10 12.15 16.20 20.25 24.30 28.35 32.40 36.45 40.50 44.55 48.60 52.65 56.70 60.75 64.80 68.85 72.90 76.95 81.00 85.05 89.10 93.15 97.20 101.25 105.30 109.35 113.40 117.45 121.50 125.55 129.60 133.65 137.70 141.75 145.80 149.85 153.90 157.95 162.00 166.05 170.10 174.15 178.20 182.25 186.30 190.35 194.40 198.45 202.50 206.55 210.60 214.65 218.70 222.75 226.80 230.85 234.90 238.95 243.00 247.05 251.10 255.15 259.20 263.25 267.30 271.35 275.40 279.45 283.50 287.55 291.60 295.65 299.70 303.75 307.80 311.85 315.90 319.95 324.00 328.05 332.10 336.15 340.20 344.25 348.30 352.35 356.40 360.45 364.50 368.55" y="395.58" font-size="6.7" font-weight="500" fill="#45515d" xml:space="preserve" clip-path="url(#r57)">  2553335555hHS#9999BG222552533h33AAGGGSMhMMMMMMMGSGHMMGSHM3322A53333333555ASSSSGHMh5555535r</text><clipPath id="r58"><rect x="-1" y="395.72" width="386.75" height="7.6"><animate attributeName="width" values="0;0;386.75" keyTimes="0;0.7101;1" begin="0s" dur="1.55s" fill="freeze"/></rect></clipPath><text x="0.00 4.05 8.10 12.15 16.20 20.25 24.30 28.35 32.40 36.45 40.50 44.55 48.60 52.65 56.70 60.75 64.80 68.85 72.90 76.95 81.00 85.05 89.10 93.15 97.20 101.25 105.30 109.35 113.40 117.45 121.50 125.55 129.60 133.65 137.70 141.75 145.80 149.85 153.90 157.95 162.00 166.05 170.10 174.15 178.20 182.25 186.30 190.35 194.40 198.45 202.50 206.55 210.60 214.65 218.70 222.75 226.80 230.85 234.90 238.95 243.00 247.05 251.10 255.15 259.20 263.25 267.30 271.35 275.40 279.45 283.50 287.55 291.60 295.65 299.70 303.75 307.80 311.85 315.90 319.95 324.00 328.05 332.10 336.15 340.20 344.25 348.30 352.35 356.40 360.45 364.50 368.55 372.60" y="402.52" font-size="6.7" font-weight="500" fill="#45515d" xml:space="preserve" clip-path="url(#r58)"> hMHHHGSSSSGHMHHS#BB9G5A255553333h52SGGGGhMHGSS#SGM35Xs3GMh3h25A53hh3333335AB9#GMMh33hhh35As:</text><clipPath id="r59"><rect x="-1" y="402.66" width="386.75" height="7.6"><animate attributeName="width" values="0;0;386.75" keyTimes="0;0.7136;1" begin="0s" dur="1.57s" fill="freeze"/></rect></clipPath><text x="0.00 4.05 8.10 12.15 16.20 20.25 24.30 28.35 32.40 36.45 40.50 44.55 48.60 52.65 56.70 60.75 64.80 68.85 72.90 76.95 81.00 85.05 89.10 93.15 97.20 101.25 105.30 109.35 113.40 117.45 121.50 125.55 129.60 133.65 137.70 141.75 145.80 149.85 153.90 157.95 162.00 166.05 170.10 174.15 178.20 182.25 186.30 190.35 194.40 198.45 202.50 206.55 210.60 214.65 218.70 222.75 226.80 230.85 234.90 238.95 243.00 247.05 251.10 255.15 259.20 263.25 267.30 271.35 275.40 279.45 283.50 287.55 291.60 295.65 299.70 303.75 307.80 311.85 315.90 319.95 324.00 328.05 332.10 336.15 340.20 344.25 348.30 352.35 356.40 360.45 364.50 368.55 372.60" y="409.46" font-size="6.7" font-weight="500" fill="#45515d" xml:space="preserve" clip-path="url(#r59)"> A5333MHHGHHGGSS#9#99GMA25555533hHh5#GGGG#BBBB9##32sirrAHMhhh2225hhhhh3335225MSGHMhh333332r;;</text><clipPath id="r60"><rect x="-1" y="409.60" width="386.75" height="7.6"><animate attributeName="width" values="0;0;386.75" keyTimes="0;0.7170;1" begin="0s" dur="1.59s" fill="freeze"/></rect></clipPath><text x="0.00 4.05 8.10 12.15 16.20 20.25 24.30 28.35 32.40 36.45 40.50 44.55 48.60 52.65 56.70 60.75 64.80 68.85 72.90 76.95 81.00 85.05 89.10 93.15 97.20 101.25 105.30 109.35 113.40 117.45 121.50 125.55 129.60 133.65 137.70 141.75 145.80 149.85 153.90 157.95 162.00 166.05 170.10 174.15 178.20 182.25 186.30 190.35 194.40 198.45 202.50 206.55 210.60 214.65 218.70 222.75 226.80 230.85 234.90 238.95 243.00 247.05 251.10 255.15 259.20 263.25 267.30 271.35 275.40 279.45 283.50 287.55 291.60 295.65 299.70 303.75 307.80 311.85 315.90 319.95 324.00 328.05 332.10 336.15 340.20 344.25 348.30 352.35 356.40 360.45 364.50 368.55 372.60" y="416.40" font-size="6.7" font-weight="500" fill="#45515d" xml:space="preserve" clip-path="url(#r60)">  533hMHHHHHGS#99BB&amp;&amp;#MA25555533hMH3#GGGG#BBB&amp;9S#AriiirshMhhM25253hhhh3333223 3#Gh353hhhh3si:</text><clipPath id="r61"><rect x="-1" y="416.54" width="386.75" height="7.6"><animate attributeName="width" values="0;0;386.75" keyTimes="0;0.7203;1" begin="0s" dur="1.61s" fill="freeze"/></rect></clipPath><text x="0.00 4.05 8.10 12.15 16.20 20.25 24.30 28.35 32.40 36.45 40.50 44.55 48.60 52.65 56.70 60.75 64.80 68.85 72.90 76.95 81.00 85.05 89.10 93.15 97.20 101.25 105.30 109.35 113.40 117.45 121.50 125.55 129.60 133.65 137.70 141.75 145.80 149.85 153.90 157.95 162.00 166.05 170.10 174.15 178.20 182.25 186.30 190.35 194.40 198.45 202.50 206.55 210.60 214.65 218.70 222.75 226.80 230.85 234.90 238.95 243.00 247.05 251.10 255.15 259.20 263.25 267.30 271.35 275.40 279.45 283.50 287.55 291.60 295.65 299.70 303.75 307.80 311.85 315.90 319.95 324.00 328.05 332.10 336.15 340.20 344.25 348.30 352.35 356.40 360.45 364.50 368.55 372.60 376.65" y="423.34" font-size="6.7" font-weight="500" fill="#45515d" xml:space="preserve" clip-path="url(#r61)">  533hhMMMHHGSS#999B@&amp;HAA22553333hMM#SGGS#B&amp;9##GSMrriiir2MMMM5525hMhhhhh3352#hMGMMMMMh3355As;.</text><clipPath id="r62"><rect x="-1" y="423.48" width="386.75" height="7.6"><animate attributeName="width" values="0;0;386.75" keyTimes="0;0.7236;1" begin="0s" dur="1.63s" fill="freeze"/></rect></clipPath><text x="0.00 4.05 8.10 12.15 16.20 20.25 24.30 28.35 32.40 36.45 40.50 44.55 48.60 52.65 56.70 60.75 64.80 68.85 72.90 76.95 81.00 85.05 89.10 93.15 97.20 101.25 105.30 109.35 113.40 117.45 121.50 125.55 129.60 133.65 137.70 141.75 145.80 149.85 153.90 157.95 162.00 166.05 170.10 174.15 178.20 182.25 186.30 190.35 194.40 198.45 202.50 206.55 210.60 214.65 218.70 222.75 226.80 230.85 234.90 238.95 243.00 247.05 251.10 255.15 259.20 263.25 267.30 271.35 275.40 279.45 283.50 287.55 291.60 295.65 299.70 303.75 307.80 311.85 315.90 319.95 324.00 328.05 332.10 336.15 340.20 344.25 348.30 352.35 356.40 360.45 364.50 368.55 372.60" y="430.28" font-size="6.7" font-weight="500" fill="#45515d" xml:space="preserve" clip-path="url(#r62)">  #M55hhhMMMMHGS9999B&amp;#AA25555533h3M#S#B&amp;&amp;&amp;&amp;9B#GG#rriiirshhMh3525hhhhhhhh332#B#GHMMMh333335A,</text><clipPath id="r63"><rect x="-1" y="430.42" width="386.75" height="7.6"><animate attributeName="width" values="0;0;386.75" keyTimes="0;0.7268;1" begin="0s" dur="1.65s" fill="freeze"/></rect></clipPath><text x="0.00 4.05 8.10 12.15 16.20 20.25 24.30 28.35 32.40 36.45 40.50 44.55 48.60 52.65 56.70 60.75 64.80 68.85 72.90 76.95 81.00 85.05 89.10 93.15 97.20 101.25 105.30 109.35 113.40 117.45 121.50 125.55 129.60 133.65 137.70 141.75 145.80 149.85 153.90 157.95 162.00 166.05 170.10 174.15 178.20 182.25 186.30 190.35 194.40 198.45 202.50 206.55 210.60 214.65 218.70 222.75 226.80 230.85 234.90 238.95 243.00 247.05 251.10 255.15 259.20 263.25 267.30 271.35 275.40 279.45 283.50 287.55 291.60 295.65 299.70 303.75 307.80 311.85 315.90 319.95 324.00 328.05 332.10 336.15 340.20 344.25 348.30 352.35 356.40 360.45 364.50 368.55 372.60 376.65" y="437.22" font-size="6.7" font-weight="500" fill="#45515d" xml:space="preserve" clip-path="url(#r63)">   h533hhhhMMMHS9BBB&amp;@&amp;3A25533333h3h&amp;&amp;&amp;&amp;B999999#GG3iiiiir5hMM35553MMMhhhh335S99#GHMhhhhhh32Xi,</text><clipPath id="r64"><rect x="-1" y="437.36" width="386.75" height="7.6"><animate attributeName="width" values="0;0;386.75" keyTimes="0;0.7299;1" begin="0s" dur="1.67s" fill="freeze"/></rect></clipPath><text x="0.00 4.05 8.10 12.15 16.20 20.25 24.30 28.35 32.40 36.45 40.50 44.55 48.60 52.65 56.70 60.75 64.80 68.85 72.90 76.95 81.00 85.05 89.10 93.15 97.20 101.25 105.30 109.35 113.40 117.45 121.50 125.55 129.60 133.65 137.70 141.75 145.80 149.85 153.90 157.95 162.00 166.05 170.10 174.15 178.20 182.25 186.30 190.35 194.40 198.45 202.50 206.55 210.60 214.65 218.70 222.75 226.80 230.85 234.90 238.95 243.00 247.05 251.10 255.15 259.20 263.25 267.30 271.35 275.40 279.45 283.50 287.55 291.60 295.65 299.70 303.75 307.80 311.85 315.90 319.95 324.00 328.05 332.10 336.15 340.20 344.25 348.30 352.35 356.40 360.45 364.50 368.55 372.60 376.65" y="444.16" font-size="6.7" font-weight="500" fill="#45515d" xml:space="preserve" clip-path="url(#r64)">   :5hhhMMMHMHHGS###B@&amp;GXA5333333h3M&amp;&amp;B9#SSMGS9#MH#iiiiirXhhhM555hMMMMMMhhh5##9SHMMMMhh3555X:;</text><clipPath id="r65"><rect x="-1" y="444.30" width="386.75" height="7.6"><animate attributeName="width" values="0;0;386.75" keyTimes="0;0.7329;1" begin="0s" dur="1.68s" fill="freeze"/></rect></clipPath><text x="0.00 4.05 8.10 12.15 16.20 20.25 24.30 28.35 32.40 36.45 40.50 44.55 48.60 52.65 56.70 60.75 64.80 68.85 72.90 76.95 81.00 85.05 89.10 93.15 97.20 101.25 105.30 109.35 113.40 117.45 121.50 125.55 129.60 133.65 137.70 141.75 145.80 149.85 153.90 157.95 162.00 166.05 170.10 174.15 178.20 182.25 186.30 190.35 194.40 198.45 202.50 206.55 210.60 214.65 218.70 222.75 226.80 230.85 234.90 238.95 243.00 247.05 251.10 255.15 259.20 263.25 267.30 271.35 275.40 279.45 283.50 287.55 291.60 295.65 299.70 303.75 307.80 311.85 315.90 319.95 324.00 328.05 332.10 336.15 340.20 344.25 348.30 352.35 356.40 360.45 364.50 368.55 372.60 376.65" y="451.10" font-size="6.7" font-weight="500" fill="#45515d" xml:space="preserve" clip-path="url(#r65)">    ;53hhhhMHHHHGSS##&amp;hSXA5335333hhMB&amp;B#S#SMM3hGhMS2iiirrXhhMM255hMHHMMMMMh3GH#SGHHM33333532i:</text><clipPath id="r66"><rect x="-1" y="451.24" width="386.75" height="7.6"><animate attributeName="width" values="0;0;386.75" keyTimes="0;0.7359;1" begin="0s" dur="1.70s" fill="freeze"/></rect></clipPath><text x="0.00 4.05 8.10 12.15 16.20 20.25 24.30 28.35 32.40 36.45 40.50 44.55 48.60 52.65 56.70 60.75 64.80 68.85 72.90 76.95 81.00 85.05 89.10 93.15 97.20 101.25 105.30 109.35 113.40 117.45 121.50 125.55 129.60 133.65 137.70 141.75 145.80 149.85 153.90 157.95 162.00 166.05 170.10 174.15 178.20 182.25 186.30 190.35 194.40 198.45 202.50 206.55 210.60 214.65 218.70 222.75 226.80 230.85 234.90 238.95 243.00 247.05 251.10 255.15 259.20 263.25 267.30 271.35 275.40 279.45 283.50 287.55 291.60 295.65 299.70 303.75 307.80 311.85 315.90 319.95 324.00 328.05 332.10 336.15 340.20 344.25 348.30 352.35 356.40 360.45 364.50 368.55 372.60 376.65 380.70" y="458.04" font-size="6.7" font-weight="500" fill="#45515d" xml:space="preserve" clip-path="url(#r66)">    s253hhMMMHHGGSS9B&amp;2h2A23553h3h33G9SG#9#Hh353hhMSiiirrs5hhM23hhMMMMMMMMh352S#GHMMMhhhh35AA;.</text><clipPath id="r67"><rect x="-1" y="458.18" width="386.75" height="7.6"><animate attributeName="width" values="0;0;386.75" keyTimes="0;0.7388;1" begin="0s" dur="1.72s" fill="freeze"/></rect></clipPath><text x="0.00 4.05 8.10 12.15 16.20 20.25 24.30 28.35 32.40 36.45 40.50 44.55 48.60 52.65 56.70 60.75 64.80 68.85 72.90 76.95 81.00 85.05 89.10 93.15 97.20 101.25 105.30 109.35 113.40 117.45 121.50 125.55 129.60 133.65 137.70 141.75 145.80 149.85 153.90 157.95 162.00 166.05 170.10 174.15 178.20 182.25 186.30 190.35 194.40 198.45 202.50 206.55 210.60 214.65 218.70 222.75 226.80 230.85 234.90 238.95 243.00 247.05 251.10 255.15 259.20 263.25 267.30 271.35 275.40 279.45 283.50 287.55 291.60 295.65 299.70 303.75 307.80 311.85 315.90 319.95 324.00 328.05 332.10 336.15 340.20 344.25 348.30 352.35 356.40 360.45 364.50 368.55 372.60 376.65 380.70" y="464.98" font-size="6.7" font-weight="500" fill="#45515d" xml:space="preserve" clip-path="url(#r67)">     2hhhMMMMMMHGGSS#9233X25553333225h35hMHMhh53hhhSAiiirs2MMM53hh33h333555A22H9SGHM333hhh52X:,</text><clipPath id="r68"><rect x="-1" y="465.12" width="386.75" height="7.6"><animate attributeName="width" values="0;0;386.75" keyTimes="0;0.7417;1" begin="0s" dur="1.74s" fill="freeze"/></rect></clipPath><text x="0.00 4.05 8.10 12.15 16.20 20.25 24.30 28.35 32.40 36.45 40.50 44.55 48.60 52.65 56.70 60.75 64.80 68.85 72.90 76.95 81.00 85.05 89.10 93.15 97.20 101.25 105.30 109.35 113.40 117.45 121.50 125.55 129.60 133.65 137.70 141.75 145.80 149.85 153.90 157.95 162.00 166.05 170.10 174.15 178.20 182.25 186.30 190.35 194.40 198.45 202.50 206.55 210.60 214.65 218.70 222.75 226.80 230.85 234.90 238.95 243.00 247.05 251.10 255.15 259.20 263.25 267.30 271.35 275.40 279.45 283.50 287.55 291.60 295.65 299.70 303.75 307.80 311.85 315.90 319.95 324.00 328.05 332.10 336.15 340.20 344.25 348.30 352.35 356.40 360.45 364.50 368.55 372.60 376.65 380.70" y="471.92" font-size="6.7" font-weight="500" fill="#45515d" xml:space="preserve" clip-path="url(#r68)">      553hhMhhhHSSS##9335A25553333A2AAAXXXA3hh55333HMrrrrsAhMM233h333355552222MSGMMMMMMMh352r;.</text><clipPath id="r69"><rect x="-1" y="472.06" width="386.75" height="7.6"><animate attributeName="width" values="0;0;386.75" keyTimes="0;0.7445;1" begin="0s" dur="1.76s" fill="freeze"/></rect></clipPath><text x="0.00 4.05 8.10 12.15 16.20 20.25 24.30 28.35 32.40 36.45 40.50 44.55 48.60 52.65 56.70 60.75 64.80 68.85 72.90 76.95 81.00 85.05 89.10 93.15 97.20 101.25 105.30 109.35 113.40 117.45 121.50 125.55 129.60 133.65 137.70 141.75 145.80 149.85 153.90 157.95 162.00 166.05 170.10 174.15 178.20 182.25 186.30 190.35 194.40 198.45 202.50 206.55 210.60 214.65 218.70 222.75 226.80 230.85 234.90 238.95 243.00 247.05 251.10 255.15 259.20 263.25 267.30 271.35 275.40 279.45 283.50 287.55 291.60 295.65 299.70 303.75 307.80 311.85 315.90 319.95 324.00 328.05 332.10 336.15 340.20 344.25 348.30 352.35 356.40 360.45 364.50 368.55 372.60 376.65" y="478.86" font-size="6.7" font-weight="500" fill="#45515d" xml:space="preserve" clip-path="url(#r69)">      X55hhhMhMMMHGS#9#333A5553335AAAAXXsrr2hh55333h#ssrrsXhMM2h33333h35535555hMSMMMMMhhh35s::</text><clipPath id="r70"><rect x="-1" y="479.00" width="386.75" height="7.6"><animate attributeName="width" values="0;0;386.75" keyTimes="0;0.7472;1" begin="0s" dur="1.78s" fill="freeze"/></rect></clipPath><text x="0.00 4.05 8.10 12.15 16.20 20.25 24.30 28.35 32.40 36.45 40.50 44.55 48.60 52.65 56.70 60.75 64.80 68.85 72.90 76.95 81.00 85.05 89.10 93.15 97.20 101.25 105.30 109.35 113.40 117.45 121.50 125.55 129.60 133.65 137.70 141.75 145.80 149.85 153.90 157.95 162.00 166.05 170.10 174.15 178.20 182.25 186.30 190.35 194.40 198.45 202.50 206.55 210.60 214.65 218.70 222.75 226.80 230.85 234.90 238.95 243.00 247.05 251.10 255.15 259.20 263.25 267.30 271.35 275.40 279.45 283.50 287.55 291.60 295.65 299.70 303.75 307.80 311.85 315.90 319.95 324.00 328.05 332.10 336.15 340.20 344.25 348.30 352.35 356.40 360.45 364.50 368.55 372.60" y="485.80" font-size="6.7" font-weight="500" fill="#45515d" xml:space="preserve" clip-path="url(#r70)">       h33hhMhMHHHHGS#9S53A5533333AXXXXXssr3M5223353S2ssXAA3MM2hh3333h3333555333GMhMMhhhh33X;</text><clipPath id="r71"><rect x="-1" y="485.94" width="386.75" height="7.6"><animate attributeName="width" values="0;0;386.75" keyTimes="0;0.7499;1" begin="0s" dur="1.80s" fill="freeze"/></rect></clipPath><text x="0.00 4.05 8.10 12.15 16.20 20.25 24.30 28.35 32.40 36.45 40.50 44.55 48.60 52.65 56.70 60.75 64.80 68.85 72.90 76.95 81.00 85.05 89.10 93.15 97.20 101.25 105.30 109.35 113.40 117.45 121.50 125.55 129.60 133.65 137.70 141.75 145.80 149.85 153.90 157.95 162.00 166.05 170.10 174.15 178.20 182.25 186.30 190.35 194.40 198.45 202.50 206.55 210.60 214.65 218.70 222.75 226.80 230.85 234.90 238.95 243.00 247.05 251.10 255.15 259.20 263.25 267.30 271.35 275.40 279.45 283.50 287.55 291.60 295.65 299.70 303.75 307.80 311.85 315.90 319.95 324.00 328.05 332.10 336.15 340.20 344.25 348.30 352.35 356.40 360.45 364.50 368.55 372.60 376.65" y="492.74" font-size="6.7" font-weight="500" fill="#45515d" xml:space="preserve" clip-path="url(#r71)">        hMMhhhMMMMHHGSSG9322535333AAXssssssSGM353355HMirsX23hM3533333h33335553hhHHMMhhh333552:</text><clipPath id="r72"><rect x="-1" y="492.88" width="386.75" height="7.6"><animate attributeName="width" values="0;0;386.75" keyTimes="0;0.7525;1" begin="0s" dur="1.82s" fill="freeze"/></rect></clipPath><text x="0.00 4.05 8.10 12.15 16.20 20.25 24.30 28.35 32.40 36.45 40.50 44.55 48.60 52.65 56.70 60.75 64.80 68.85 72.90 76.95 81.00 85.05 89.10 93.15 97.20 101.25 105.30 109.35 113.40 117.45 121.50 125.55 129.60 133.65 137.70 141.75 145.80 149.85 153.90 157.95 162.00 166.05 170.10 174.15 178.20 182.25 186.30 190.35 194.40 198.45 202.50 206.55 210.60 214.65 218.70 222.75 226.80 230.85 234.90 238.95 243.00 247.05 251.10 255.15 259.20 263.25 267.30 271.35 275.40 279.45 283.50 287.55 291.60 295.65 299.70 303.75 307.80 311.85 315.90 319.95 324.00 328.05 332.10 336.15 340.20 344.25 348.30 352.35 356.40 360.45 364.50 368.55 372.60 376.65" y="499.68" font-size="6.7" font-weight="500" fill="#45515d" xml:space="preserve" clip-path="url(#r72)">         r3hhhMMMMMHHG9GGShA53333hh32Xrrii23hMMHSSMhHGr;irs2hMM233333h33333533MGSMMMMMh33335A,</text><clipPath id="r73"><rect x="-1" y="499.82" width="386.75" height="7.6"><animate attributeName="width" values="0;0;386.75" keyTimes="0;0.7550;1" begin="0s" dur="1.84s" fill="freeze"/></rect></clipPath><text x="0.00 4.05 8.10 12.15 16.20 20.25 24.30 28.35 32.40 36.45 40.50 44.55 48.60 52.65 56.70 60.75 64.80 68.85 72.90 76.95 81.00 85.05 89.10 93.15 97.20 101.25 105.30 109.35 113.40 117.45 121.50 125.55 129.60 133.65 137.70 141.75 145.80 149.85 153.90 157.95 162.00 166.05 170.10 174.15 178.20 182.25 186.30 190.35 194.40 198.45 202.50 206.55 210.60 214.65 218.70 222.75 226.80 230.85 234.90 238.95 243.00 247.05 251.10 255.15 259.20 263.25 267.30 271.35 275.40 279.45 283.50 287.55 291.60 295.65 299.70 303.75 307.80 311.85 315.90 319.95 324.00 328.05 332.10 336.15 340.20 344.25 348.30 352.35 356.40 360.45 364.50 368.55 372.60 376.65" y="506.62" font-size="6.7" font-weight="500" fill="#45515d" xml:space="preserve" clip-path="url(#r73)">          :533hMMMMMSGMHHS92533333AAAAAXsrir255hG#GMHMA;;;ir5MH2hhhhhhhh33333hMSHMMMhMh3333Ar,</text><clipPath id="r74"><rect x="-1" y="506.76" width="386.75" height="7.6"><animate attributeName="width" values="0;0;386.75" keyTimes="0;0.7575;1" begin="0s" dur="1.86s" fill="freeze"/></rect></clipPath><text x="0.00 4.05 8.10 12.15 16.20 20.25 24.30 28.35 32.40 36.45 40.50 44.55 48.60 52.65 56.70 60.75 64.80 68.85 72.90 76.95 81.00 85.05 89.10 93.15 97.20 101.25 105.30 109.35 113.40 117.45 121.50 125.55 129.60 133.65 137.70 141.75 145.80 149.85 153.90 157.95 162.00 166.05 170.10 174.15 178.20 182.25 186.30 190.35 194.40 198.45 202.50 206.55 210.60 214.65 218.70 222.75 226.80 230.85 234.90 238.95 243.00 247.05 251.10 255.15 259.20 263.25 267.30 271.35 275.40 279.45 283.50 287.55 291.60 295.65 299.70 303.75 307.80 311.85 315.90 319.95 324.00 328.05 332.10 336.15 340.20 344.25 348.30 352.35 356.40 360.45 364.50 368.55 372.60" y="513.56" font-size="6.7" font-weight="500" fill="#45515d" xml:space="preserve" clip-path="url(#r74)">          X2hh333HMHH3MHHS#h533333AXXsri;;iiiAAX352M2XA::::;rhh33hhhhhhh33333hH#GMMMMhh3335s:</text><clipPath id="r75"><rect x="-1" y="513.70" width="386.75" height="7.6"><animate attributeName="width" values="0;0;386.75" keyTimes="0;0.7600;1" begin="0s" dur="1.88s" fill="freeze"/></rect></clipPath><text x="0.00 4.05 8.10 12.15 16.20 20.25 24.30 28.35 32.40 36.45 40.50 44.55 48.60 52.65 56.70 60.75 64.80 68.85 72.90 76.95 81.00 85.05 89.10 93.15 97.20 101.25 105.30 109.35 113.40 117.45 121.50 125.55 129.60 133.65 137.70 141.75 145.80 149.85 153.90 157.95 162.00 166.05 170.10 174.15 178.20 182.25 186.30 190.35 194.40 198.45 202.50 206.55 210.60 214.65 218.70 222.75 226.80 230.85 234.90 238.95 243.00 247.05 251.10 255.15 259.20 263.25 267.30 271.35 275.40 279.45 283.50 287.55 291.60 295.65 299.70 303.75 307.80 311.85 315.90 319.95 324.00 328.05 332.10 336.15 340.20 344.25 348.30 352.35 356.40 360.45 364.50 368.55 372.60 376.65" y="520.50" font-size="6.7" font-weight="500" fill="#45515d" xml:space="preserve" clip-path="url(#r75)">           2ihMHhhhMh5hMMG#H253333M5AXri;;;;;;rrXiirii;;;:::;5hh5333hhhhh33hMMHSHHHMMhh3XXs;:.</text><clipPath id="r76"><rect x="-1" y="520.64" width="386.75" height="7.6"><animate attributeName="width" values="0;0;386.75" keyTimes="0;0.7624;1" begin="0s" dur="1.89s" fill="freeze"/></rect></clipPath><text x="0.00 4.05 8.10 12.15 16.20 20.25 24.30 28.35 32.40 36.45 40.50 44.55 48.60 52.65 56.70 60.75 64.80 68.85 72.90 76.95 81.00 85.05 89.10 93.15 97.20 101.25 105.30 109.35 113.40 117.45 121.50 125.55 129.60 133.65 137.70 141.75 145.80 149.85 153.90 157.95 162.00 166.05 170.10 174.15 178.20 182.25 186.30 190.35 194.40 198.45 202.50 206.55 210.60 214.65 218.70 222.75 226.80 230.85 234.90 238.95 243.00 247.05 251.10 255.15 259.20 263.25 267.30 271.35 275.40 279.45 283.50 287.55 291.60 295.65 299.70 303.75 307.80 311.85 315.90 319.95 324.00 328.05 332.10 336.15 340.20 344.25 348.30 352.35 356.40 360.45 364.50 368.55 372.60" y="527.44" font-size="6.7" font-weight="500" fill="#45515d" xml:space="preserve" clip-path="url(#r76)">            :AsMHhhhh5hhhMGS253333Gh2AXsr;;;;ii;::::::::;;;;;s3M5hhhhMMh3hhMMHHHHMMMMhhhhh35X</text><clipPath id="r77"><rect x="-1" y="527.58" width="386.75" height="7.6"><animate attributeName="width" values="0;0;386.75" keyTimes="0;0.7648;1" begin="0s" dur="1.91s" fill="freeze"/></rect></clipPath><text x="0.00 4.05 8.10 12.15 16.20 20.25 24.30 28.35 32.40 36.45 40.50 44.55 48.60 52.65 56.70 60.75 64.80 68.85 72.90 76.95 81.00 85.05 89.10 93.15 97.20 101.25 105.30 109.35 113.40 117.45 121.50 125.55 129.60 133.65 137.70 141.75 145.80 149.85 153.90 157.95 162.00 166.05 170.10 174.15 178.20 182.25 186.30 190.35 194.40 198.45 202.50 206.55 210.60 214.65 218.70 222.75 226.80 230.85 234.90 238.95 243.00 247.05 251.10 255.15 259.20 263.25 267.30 271.35 275.40 279.45 283.50 287.55 291.60 295.65 299.70 303.75 307.80 311.85 315.90 319.95 324.00 328.05 332.10 336.15 340.20 344.25 348.30 352.35 356.40 360.45 364.50 368.55 372.60" y="534.38" font-size="6.7" font-weight="500" fill="#45515d" xml:space="preserve" clip-path="url(#r77)">             2.Xh33hh2hMhMHG353533GMAXssrri;;;:;;;;;;:::::;;ir23hhMhhMhhhMHGGSSMhhhhhhh33355r</text><clipPath id="r78"><rect x="-1" y="534.52" width="386.75" height="7.6"><animate attributeName="width" values="0;0;386.75" keyTimes="0;0.7671;1" begin="0s" dur="1.93s" fill="freeze"/></rect></clipPath><text x="0.00 4.05 8.10 12.15 16.20 20.25 24.30 28.35 32.40 36.45 40.50 44.55 48.60 52.65 56.70 60.75 64.80 68.85 72.90 76.95 81.00 85.05 89.10 93.15 97.20 101.25 105.30 109.35 113.40 117.45 121.50 125.55 129.60 133.65 137.70 141.75 145.80 149.85 153.90 157.95 162.00 166.05 170.10 174.15 178.20 182.25 186.30 190.35 194.40 198.45 202.50 206.55 210.60 214.65 218.70 222.75 226.80 230.85 234.90 238.95 243.00 247.05 251.10 255.15 259.20 263.25 267.30 271.35 275.40 279.45 283.50 287.55 291.60 295.65 299.70 303.75 307.80 311.85 315.90 319.95 324.00 328.05 332.10 336.15 340.20 344.25 348.30 352.35 356.40 360.45 364.50 368.55 372.60" y="541.32" font-size="6.7" font-weight="500" fill="#45515d" xml:space="preserve" clip-path="url(#r78)">              G3553hh23hMHGM553533HG2srriii;;;;;:::;:;;;iiirrsX5hhhMhMMMHHGSS#Gh33333hhhh32A;</text><clipPath id="r79"><rect x="-1" y="541.46" width="386.75" height="7.6"><animate attributeName="width" values="0;0;386.75" keyTimes="0;0.7693;1" begin="0s" dur="1.95s" fill="freeze"/></rect></clipPath><text x="0.00 4.05 8.10 12.15 16.20 20.25 24.30 28.35 32.40 36.45 40.50 44.55 48.60 52.65 56.70 60.75 64.80 68.85 72.90 76.95 81.00 85.05 89.10 93.15 97.20 101.25 105.30 109.35 113.40 117.45 121.50 125.55 129.60 133.65 137.70 141.75 145.80 149.85 153.90 157.95 162.00 166.05 170.10 174.15 178.20 182.25 186.30 190.35 194.40 198.45 202.50 206.55 210.60 214.65 218.70 222.75 226.80 230.85 234.90 238.95 243.00 247.05 251.10 255.15 259.20 263.25 267.30 271.35 275.40 279.45 283.50 287.55 291.60 295.65 299.70 303.75 307.80 311.85 315.90 319.95 324.00 328.05 332.10 336.15 340.20 344.25 348.30 352.35 356.40 360.45 364.50 368.55 372.60 376.65" y="548.26" font-size="6.7" font-weight="500" fill="#45515d" xml:space="preserve" clip-path="url(#r79)">               3h25335h3hMhh253553hM#hXiii;;;;;;;;::::;;;;iirrs5M3hMMMHGSSS###M3553hhhhhMhhh3i</text><clipPath id="r80"><rect x="-1" y="548.40" width="386.75" height="7.6"><animate attributeName="width" values="0;0;386.75" keyTimes="0;0.7716;1" begin="0s" dur="1.97s" fill="freeze"/></rect></clipPath><text x="0.00 4.05 8.10 12.15 16.20 20.25 24.30 28.35 32.40 36.45 40.50 44.55 48.60 52.65 56.70 60.75 64.80 68.85 72.90 76.95 81.00 85.05 89.10 93.15 97.20 101.25 105.30 109.35 113.40 117.45 121.50 125.55 129.60 133.65 137.70 141.75 145.80 149.85 153.90 157.95 162.00 166.05 170.10 174.15 178.20 182.25 186.30 190.35 194.40 198.45 202.50 206.55 210.60 214.65 218.70 222.75 226.80 230.85 234.90 238.95 243.00 247.05 251.10 255.15 259.20 263.25 267.30 271.35 275.40 279.45 283.50 287.55 291.60 295.65 299.70 303.75 307.80 311.85 315.90 319.95 324.00 328.05 332.10 336.15 340.20 344.25 348.30 352.35 356.40 360.45 364.50 368.55 372.60 376.65" y="555.20" font-size="6.7" font-weight="500" fill="#45515d" xml:space="preserve" clip-path="url(#r80)">                sG5555hhh3h3525555M9&amp;&amp;&amp;#hAr;;;;;;;::::;;;;;iirsAh3hMMMHSSS###S333hhhhhhhhMhh3r</text><clipPath id="r81"><rect x="-1" y="555.34" width="386.75" height="7.6"><animate attributeName="width" values="0;0;386.75" keyTimes="0;0.7738;1" begin="0s" dur="1.99s" fill="freeze"/></rect></clipPath><text x="0.00 4.05 8.10 12.15 16.20 20.25 24.30 28.35 32.40 36.45 40.50 44.55 48.60 52.65 56.70 60.75 64.80 68.85 72.90 76.95 81.00 85.05 89.10 93.15 97.20 101.25 105.30 109.35 113.40 117.45 121.50 125.55 129.60 133.65 137.70 141.75 145.80 149.85 153.90 157.95 162.00 166.05 170.10 174.15 178.20 182.25 186.30 190.35 194.40 198.45 202.50 206.55 210.60 214.65 218.70 222.75 226.80 230.85 234.90 238.95 243.00 247.05 251.10 255.15 259.20 263.25 267.30 271.35 275.40 279.45 283.50 287.55 291.60 295.65 299.70 303.75 307.80 311.85 315.90 319.95 324.00 328.05 332.10 336.15 340.20 344.25 348.30 352.35 356.40 360.45 364.50 368.55 372.60" y="562.14" font-size="6.7" font-weight="500" fill="#45515d" xml:space="preserve" clip-path="url(#r81)">                s9SHM3h353h2525525M&amp;&amp;&amp;&amp;&amp;&amp;&amp;&amp;#M5Xr;;:;:;;;;;;iirrXh3MhMMHSSSS##h333hhhMMMMhhhhA</text><clipPath id="r82"><rect x="-1" y="562.28" width="386.75" height="7.6"><animate attributeName="width" values="0;0;386.75" keyTimes="0;0.7759;1" begin="0s" dur="2.01s" fill="freeze"/></rect></clipPath><text x="0.00 4.05 8.10 12.15 16.20 20.25 24.30 28.35 32.40 36.45 40.50 44.55 48.60 52.65 56.70 60.75 64.80 68.85 72.90 76.95 81.00 85.05 89.10 93.15 97.20 101.25 105.30 109.35 113.40 117.45 121.50 125.55 129.60 133.65 137.70 141.75 145.80 149.85 153.90 157.95 162.00 166.05 170.10 174.15 178.20 182.25 186.30 190.35 194.40 198.45 202.50 206.55 210.60 214.65 218.70 222.75 226.80 230.85 234.90 238.95 243.00 247.05 251.10 255.15 259.20 263.25 267.30 271.35 275.40 279.45 283.50 287.55 291.60 295.65 299.70 303.75 307.80 311.85 315.90 319.95 324.00 328.05 332.10 336.15 340.20 344.25 348.30 352.35 356.40 360.45 364.50 368.55 372.60" y="569.08" font-size="6.7" font-weight="500" fill="#45515d" xml:space="preserve" clip-path="url(#r82)">                  SGS335h355525223#&amp;&amp;&amp;&amp;&amp;&amp;&amp;&amp;&amp;&amp;&amp;&amp;&amp;BSM52Xrii;;iirrs53MMMMHSSSSSGh33hhhhMMMMMhh5:</text></g><text x="188" y="43" font-size="12" font-weight="400" fill="#885821" >~/byrm-tsn</text><text x="184" y="94" font-size="38" font-weight="650" fill="#242b32" >Bayram Tosun</text><text x="188" y="132" font-size="17" font-weight="400" fill="#242b32" >Backend development</text><text x="188" y="157" font-size="17" font-weight="400" fill="#242b32" >Machine learning</text><text x="188" y="191" font-size="12" font-weight="400" fill="#56616b" >BSc + MSc Computer Science · London</text><text x="188" y="224" font-size="12" font-weight="400" fill="#885821" >&gt; always curious</text><text x="311" y="224" fill="#885821" font-size="12">_<animate attributeName="opacity" values="1;0;1" keyTimes="0;0.5;1" dur="1.4s" calcMode="discrete" repeatCount="indefinite"/></text></g>
</svg>
