<svg xmlns="http://www.w3.org/2000/svg" width="900" height="310" viewBox="0 0 900 310" role="img" aria-labelledby="title desc">
<title id="title">Bayram&#x27;s public GitHub statistics</title><desc id="desc">4 public repositories, 4 stars earned, 8 followers, and 9 contributions visible on the public calendar over the last 365 days. Language shares measure bytes in owned public non-fork repositories.</desc>
<rect width="900" height="310" rx="10" fill="#f6f5f1"/>
<g font-family="'SFMono-Regular',Consolas,'Liberation Mono',monospace"><text x="28" y="35" font-size="12" font-weight="600" fill="#885821" >PUBLIC ACTIVITY</text><text x="28" y="85" font-size="32" font-weight="600" fill="#242b32" >4</text><text x="28" y="109" font-size="12" font-weight="400" fill="#56616b" >Repositories</text><text x="218" y="85" font-size="32" font-weight="600" fill="#242b32" >4</text><text x="218" y="109" font-size="12" font-weight="400" fill="#56616b" >Stars earned</text><text x="28" y="173" font-size="32" font-weight="600" fill="#242b32" >8</text><text x="28" y="197" font-size="12" font-weight="400" fill="#56616b" >Followers</text><text x="218" y="173" font-size="32" font-weight="600" fill="#242b32" >9</text><text x="218" y="197" font-size="12" font-weight="400" fill="#56616b" >Contributions / year</text><path d="M438 28V256" stroke="#d8dcd9"/><text x="468" y="35" font-size="12" font-weight="600" fill="#885821" >LANGUAGES IN PUBLIC CODE</text><rect x="468.000" y="57" width="388.571" height="8" fill="#885821"/><rect x="856.571" y="57" width="8.418" height="8" fill="#242b32"/><rect x="864.989" y="57" width="2.333" height="8" fill="#45515d"/><rect x="867.322" y="57" width="1.701" height="8" fill="#56616b"/><rect x="869.023" y="57" width="1.593" height="8" fill="#a68fa8"/><rect x="870.616" y="57" width="1.384" height="8" fill="#839784"/><text x="468" y="98" font-size="10" font-weight="400" fill="#885821" >●</text><text x="488" y="98" font-size="13" font-weight="400" fill="#242b32" >Python</text><text x="872" y="98" font-size="13" font-weight="400" fill="#56616b" text-anchor="end">96.2%</text><text x="468" y="124" font-size="10" font-weight="400" fill="#242b32" >●</text><text x="488" y="124" font-size="13" font-weight="400" fill="#242b32" >C</text><text x="872" y="124" font-size="13" font-weight="400" fill="#56616b" text-anchor="end">2.1%</text><text x="468" y="150" font-size="10" font-weight="400" fill="#45515d" >●</text><text x="488" y="150" font-size="13" font-weight="400" fill="#242b32" >HTML</text><text x="872" y="150" font-size="13" font-weight="400" fill="#56616b" text-anchor="end">0.6%</text><text x="468" y="176" font-size="10" font-weight="400" fill="#56616b" >●</text><text x="488" y="176" font-size="13" font-weight="400" fill="#242b32" >C++</text><text x="872" y="176" font-size="13" font-weight="400" fill="#56616b" text-anchor="end">0.4%</text><text x="468" y="202" font-size="10" font-weight="400" fill="#a68fa8" >●</text><text x="488" y="202" font-size="13" font-weight="400" fill="#242b32" >Cython</text><text x="872" y="202" font-size="13" font-weight="400" fill="#56616b" text-anchor="end">0.4%</text><text x="468" y="228" font-size="10" font-weight="400" fill="#839784" >●</text><text x="488" y="228" font-size="13" font-weight="400" fill="#242b32" >Other</text><text x="872" y="228" font-size="13" font-weight="400" fill="#56616b" text-anchor="end">0.3%</text><text x="28" y="288" font-size="11" font-weight="400" fill="#56616b" >Updated 2026-10-01 · public data</text></g>
</svg>
